/* XPM */
static xpm_row_t const game_numbers_xpm[] = {
"207 18 7 1",
" 	c None",
".	c #CF7100",
"+	c #CD7200",
"@	c #CF7200",
"#	c #CE7100",
"$	c #CE7200",
"%	c #CE7000",
"     .+.. .. ..             .. ..            .+.. .. ..@.         .+.. .. ..@.              .. ..@.      .. .+.. .. ..@.         .+.. .. ..@.      .. .+.. .. ..@. ..      .+.. .. ..@.         .+.. .. ..@.   ",
"     @##@#@@.@$             #@#@@            @##@#@@.@$$@         @##@#@@.@$$@              @@.@$$@      @@#@##@#@@.@$$@         @##@#@@.@$$@      @@#@##@#@@.@$$@@@@      @##@#@@.@$$@         @##@#@@.@$$@   ",
"     #%      #.              # ##            #%         #         #%         #              ## #. #      ## #%                   #%         #                 #. #         #%         #         #%         #   ",
"  @@#@#      @$$@         @##@#@@         @@#@#        $@@@@   @@#@#        $@@@@        #@#@@.@$$@      @@#@#                @@#@#        $@@@@              @$$@      @@#@#        $@@@@   @@#@#        $@@@@",
"  @@#@#      @$$@         @##@#@@         @@#@#        $@@@@   @@#@#        $@@@@        #@#@@.@$$@      @@#@#                @@#@#        $@@@@              @$$@      @@#@#        $@@@@   @@#@#        $@@@@",
"  ## #%      #. #            # ##                    #  #                    # ##      #  #    #. #      ## #% # ## #  #      ## #%                        ## #.        ## #%         # ##   ## #%         # ##",
"  @@#@#      @$$@           #@#@@                    @$$@                   $@@@@      @##@#   @$$@      @@#@##@#@@.@$$@      @@#@#                        @@.@$        @@#@#        $@@@@   @@#@#        $@@@@",
"  ## #.      #.@#           ## ##                    #.@#                   @# ##      #.##    #.@#      ## #.## ## #.@#      ## #.                        ## #.        ## #.        @# ##   ## #.        @# ##",
"  ##%#$      ####           .#%##              .#%## ##                ## ####      ##%#$      ####                   ##$##   ##%#$.#%## ####           .#%##              #$.#%## ####         #$.#%## ####$##",
"  @@#@#      @$$@           #@#@@              #@#@@.@$                @@.@$$@      @@#@#      @$$@                   $@@@@   @@#@##@#@@.@$$@           #@#@@              @##@#@@.@$$@         @##@#@@.@$$@@@@",
"  .. .       .  .            . ..               .                            .      .. .       .  .                    . ..   .. .          .            . ..              .          .                    . ..",
"  @@#@#      @$$@           #@#@@            @##@#                          $@@@@   @@#@##@#@@.@$$@@@@                $@@@@   @@#@#        $@@@@        #@#@@           @@#@#        $@@@@                $@@@@",
"  @@#@#      @$$@           #@#@@            @##@#                          $@@@@   @@#@##@#@@.@$$@@@@                $@@@@   @@#@#        $@@@@        #@#@@           @@#@#        $@@@@                $@@@@",
"  @@ @$      @$ @            @ @@         .. @$                .. .          @ @@              @$ @      .. .          @ @@   @@ @$         @ @@         @ @@           @@ @$         @ @@              .  @   ",
"  @@#@#      @$$@           #@#@@         @@#@#                @@#@#        $@@@@              @$$@      @@#@#        $@@@@   @@#@#        $@@@@        #@#@@           @@#@#        $@@@@              @$$@   ",
"  $$ $$      $#@$            $ $$         $$ $$                $$ $$        @$ $$              $#@$      $$ $$        @$ $$   $$ $$        @$ $$         $ $$           $$ $$        @$ $$              $#@$   ",
"     @#$@@@@#@@        @@@@#$@@@@#@@#@    @@@@#$@@@@#@@#@$@@      @#$@@@@#@@#@                 @@#@         @#$@@@@#@@#@         @#$@@@@#@@#@           $@@@@              @#$@@@@#@@#@           $@@@@#@@     ",
"     @##@#@@.@$        @@#@##@#@@.@$$@    @@#@##@#@@.@$$@@@@      @##@#@@.@$$@                 @$$@         @##@#@@.@$$@         @##@#@@.@$$@           #@#@@              @##@#@@.@$$@           #@#@@.@$     "};
