/* XPM */
static xpm_row_t const menu_font_unselected_xpm[] = {
"750 26 11 1",
" 	c None",
".	c #ADAF89",
"+	c #AEB08A",
"@	c #AEAF8A",
"#	c #AEAF89",
"$	c #ADAF8A",
"%	c #ADB089",
"&	c #ADB08A",
"*	c #ADAE89",
"=	c #AEB089",
"-	c #ACB089",
"        .. ..+ ..            ..  ..  .. ..+ ..  ..            ..  .. ..+ ..  ..        ..  ..  .. ..+ ..  ..        ..  ..  .. ..+ ..  .. ...    ..  ..  .. ..+ ..  .. ...        ..  .. ..+ ..  ..        ..  ..             .. ...    ..  ..  .. ..+ ..  ..                .. ..+ ..  .. ...    ..  ..             .. ...    ..  ..                       ..                    ...    ..  ..             .. ...        ..  .. ..+ ..  ..        ..  ..  .. ..+ ..  ..            ..  .. ..+ ..  ..        ..  ..  .. ..+ ..  ..            ..  .. ..+ ..  ..        ..  ..  .. ..+ ..  ..        ..  ..             .. ...    ..  ..             .. ...    ..  ..             .. ...    ..  ..             .. ...    ..  ..         ..  ..        ..  ..  .. ..+ ..  .. ...",
"       .++ ++. ++@           ++#+++..++ ++. ++@@++           +++..++ ++. ++@@++        ++#+++..++ ++. ++@@++        ++#+++..++ ++. ++@@++ +++    ++#+++..++ ++. ++@@++ +++       +++..++ ++. ++@@++        ++#+++.           @++ +++    ++#+++..++ ++. ++@@++               .++ ++. ++@@++ +++    ++#+++.           @++ +++    ++#+++.                      ++#                   +++    ++#+++.           @++ +++       +++..++ ++. ++@@++        ++#+++..++ ++. ++@@++           +++..++ ++. ++@@++        ++#+++..++ ++. ++@@++           +++..++ ++. ++@@++        ++#+++..++ ++. ++@@++        ++#+++.           @++ +++    ++#+++.           @++ +++    ++#+++.           @++ +++    ++#+++.           @++ +++    ++#+++.        ++@@++        ++#+++..++ ++. ++@@++ +++",
"       .++ ++. ++@           ++#+++..++ ++. ++@@++           +++..++ ++. ++@@++        ++#+++..++ ++. ++@@++        ++#+++..++ ++. ++@@++ +++    ++#+++..++ ++. ++@@++ +++       +++..++ ++. ++@@++        ++#+++.           @++ +++    ++#+++..++ ++. ++@@++               .++ ++. ++@@++ +++    ++#+++.           @++ +++    ++#+++.                      ++#                   +++    ++#+++.           @++ +++       +++..++ ++. ++@@++        ++#+++..++ ++. ++@@++           +++..++ ++. ++@@++        ++#+++..++ ++. ++@@++           +++..++ ++. ++@@++        ++#+++..++ ++. ++@@++        ++#+++.           @++ +++    ++#+++.           @++ +++    ++#+++.           @++ +++    ++#+++.           @++ +++    ++#+++.        ++@@++        ++#+++..++ ++. ++@@++ +++",
"       $%% %%$ %%            %%$ %% $%% %%$ %%  %%            %% $%% %%$ %%  %%        %%$ %% $%% %%$ %%  %%        %%$ %% $%% %%$ %%  %% %%%    %%$ %% $%% %%$ %%  %% %%%        %% $%% %%$ %%  %%        %%$ %%             %% %%%    %%$ %% $%% %%$ %%  %%               $%% %%$ %%  %% %%%    %%$ %%             %% %%%    %%$ %%                       %%$                   %%%    %%$ %%             %% %%%        %% $%% %%$ %%  %%        %%$ %% $%% %%$ %%  %%            %% $%% %%$ %%  %%        %%$ %% $%% %%$ %%  %%            %% $%% %%$ %%  %%        %%$ %% $%% %%$ %%  %%        %%$ %%             %% %%%    %%$ %%             %% %%%    %%$ %%             %% %%%    %%$ %%             %% %%%    %%$ %%         %%  %%        %%$ %% $%% %%$ %%  %% %%%",
"    .. %..     ..##..        ..& ..            #.. ...    ..& ..            #.. ...    ..& ..            #.. ...    ..& ..                       ..& ..                       ..& ..            #.. ...    ..& ..            #.. ...           %.. ...                              ..##..        ..& ..         ..##..        ..& ..                       ..& ..            #.. ...    ..& .. %..        #.. ...    ..& ..            #.. ...    ..& ..            #.. ...    ..& ..            #.. ...    ..& ..            #.. ...    ..& ..            #.. ...           %.. ...               ..& ..            #.. ...    ..& ..            #.. ...    ..& ..            #.. ...        .. %..     ..##..        ..& ..         ..##..                       ..##..    ",
"   +++..++     ++@@++        ++#+++.           @++ +++    ++#+++.           @++ +++    ++#+++.           @++ +++    ++#+++.                      ++#+++.                      ++#+++.           @++ +++    ++#+++.           @++ +++           .++ ++.                              ++@@++        ++#+++.        ++@@++        ++#+++.                      ++#+++.           @++ +++    ++#+++..++        @++ +++    ++#+++.           @++ +++    ++#+++.           @++ +++    ++#+++.           @++ +++    ++#+++.           @++ +++    ++#+++.           @++ +++           .++ ++.               ++#+++.           @++ +++    ++#+++.           @++ +++    ++#+++.           @++ +++       +++..++     ++@@++        ++#+++.        ++@@++                       ++@@++    ",
"   +++..++     ++@@++        ++#+++.           @++ +++    ++#+++.           @++ +++    ++#+++.           @++ +++    ++#+++.                      ++#+++.                      ++#+++.           @++ +++    ++#+++.           @++ +++           .++ ++.                              ++@@++        ++#+++.        ++@@++        ++#+++.                      ++#+++.           @++ +++    ++#+++..++        @++ +++    ++#+++.           @++ +++    ++#+++.           @++ +++    ++#+++.           @++ +++    ++#+++.           @++ +++    ++#+++.           @++ +++           .++ ++.               ++#+++.           @++ +++    ++#+++.           @++ +++    ++#+++.           @++ +++       +++..++     ++@@++        ++#+++.        ++@@++                       ++@@++    ",
"                                                                                                                                                                                                                                                                                                                                                                                                                                                                                                                                                                                                                                                                                                                                                                              ",
"++#+++.           @++ +++    ++#+++.           @++ +++    ++#+++.                      ++#+++.           @++ +++    ++#+++.                      ++#+++.                      ++#+++.                      ++#+++.           @++ +++           .++ ++.                              ++@@++        ++#+++.    ++. ++@           ++#+++.                      ++#+++..++     ++@@++ +++    ++#+++..++ ++.    @++ +++    ++#+++.           @++ +++    ++#+++.           @++ +++    ++#+++.           @++ +++    ++#+++.           @++ +++    ++#+++.                             .++ ++.               ++#+++.           @++ +++    ++#+++.           @++ +++    ++#+++.           @++ +++           .++ ++. ++@           ++#+++.        ++@@++                   ++. ++@       ",
"++#+++.           @++ +++    ++#+++.           @++ +++    ++#+++.                      ++#+++.           @++ +++    ++#+++.                      ++#+++.                      ++#+++.                      ++#+++.           @++ +++           .++ ++.                              ++@@++        ++#+++.    ++. ++@           ++#+++.                      ++#+++..++     ++@@++ +++    ++#+++..++ ++.    @++ +++    ++#+++.           @++ +++    ++#+++.           @++ +++    ++#+++.           @++ +++    ++#+++.           @++ +++    ++#+++.                             .++ ++.               ++#+++.           @++ +++    ++#+++.           @++ +++    ++#+++.           @++ +++           .++ ++. ++@           ++#+++.        ++@@++                   ++. ++@       ",
"++#+++.           @++ +++    ++#+++.           @++ +++    ++#+++.                      ++#+++.           @++ +++    ++#+++.                      ++#+++.                      ++#+++.                      ++#+++.           @++ +++           .++ ++.                              ++@@++        ++#+++.    ++. ++@           ++#+++.                      ++#+++..++     ++@@++ +++    ++#+++..++ ++.    @++ +++    ++#+++.           @++ +++    ++#+++.           @++ +++    ++#+++.           @++ +++    ++#+++.           @++ +++    ++#+++.                             .++ ++.               ++#+++.           @++ +++    ++#+++.           @++ +++    ++#+++.           @++ +++           .++ ++. ++@           ++#+++.        ++@@++                   ++. ++@       ",
"                                                                                                                                                                                                                                                                                                                                                                                                                                                                                                                                                                                                                                                                                                                                                                              ",
"++#+++.           @++ +++    ++#+++..++ ++. ++@@++        ++#+++.                      ++#+++.           @++ +++    ++#+++..++ ++. ++@@++        ++#+++..++ ++. ++@@++        ++#+++.        ++@@++ +++    ++#+++..++ ++. ++@@++ +++           .++ ++.                              ++@@++        ++#+++..++ ++.               ++#+++.                      ++#+++..++ ++. ++@@++ +++    ++#+++.    ++. ++@@++ +++    ++#+++.           @++ +++    ++#+++..++ ++. ++@@++        ++#+++.           @++ +++    ++#+++..++ ++. ++@@++           +++..++ ++. ++@@++               .++ ++.               ++#+++.           @++ +++    ++#+++.           @++ +++    ++#+++.           @++ +++           .++ ++. ++@              +++..++ ++. ++@                  .++ ++.           ",
"++#+++.           @++ +++    ++#+++..++ ++. ++@@++        ++#+++.                      ++#+++.           @++ +++    ++#+++..++ ++. ++@@++        ++#+++..++ ++. ++@@++        ++#+++.        ++@@++ +++    ++#+++..++ ++. ++@@++ +++           .++ ++.                              ++@@++        ++#+++..++ ++.               ++#+++.                      ++#+++..++ ++. ++@@++ +++    ++#+++.    ++. ++@@++ +++    ++#+++.           @++ +++    ++#+++..++ ++. ++@@++        ++#+++.           @++ +++    ++#+++..++ ++. ++@@++           +++..++ ++. ++@@++               .++ ++.               ++#+++.           @++ +++    ++#+++.           @++ +++    ++#+++.           @++ +++           .++ ++. ++@              +++..++ ++. ++@                  .++ ++.           ",
"..$ ..            $.. ...    ..$ .. ... ..# ..$$..        ..$ ..                       ..$ ..            $.. ...    ..$ .. ... ..# ..$$..        ..$ .. ... ..# ..$$..        ..$ ..         ..$$.. ...    ..$ .. ... ..# ..$$.. ...           ... ..#                              ..$$..        ..$ .. ... ..#               ..$ ..                       ..$ .. ... ..# ..$$.. ...    ..$ ..     ..# ..$$.. ...    ..$ ..            $.. ...    ..$ .. ... ..# ..$$..        ..$ ..            $.. ...    ..$ .. ... ..# ..$$..            .. ... ..# ..$$..               ... ..#               ..$ ..            $.. ...    ..$ ..            $.. ...    ..$ ..            $.. ...           ... ..# ..$               .. ... ..# ..$                  ... ..#           ",
"**% ** $** **@ **  ** ***    **% **             ** ***    **% **                       **% **             ** ***    **% **                       **% **                       **% **             ** ***    **% **             ** ***           $** **@                              **  **        **% ** $** **@ **            **% **                       **% **     **@     ** ***    **% **         **  ** ***    **% **             ** ***    **% **                       **% **     **@ **  ** ***    **% **     **@ **                               ** ***           $** **@               **% **             ** ***    **% **             ** ***    **% **     **@     ** ***        ** $**     **  **               $** **@                   ** $**               ",
"++#+++..++ ++. ++@@++ +++    ++#+++.           @++ +++    ++#+++.                      ++#+++.           @++ +++    ++#+++.                      ++#+++.                      ++#+++.           @++ +++    ++#+++.           @++ +++           .++ ++.                              ++@@++        ++#+++..++ ++. ++@           ++#+++.                      ++#+++.    ++.    @++ +++    ++#+++.        ++@@++ +++    ++#+++.           @++ +++    ++#+++.                      ++#+++.    ++. ++@@++ +++    ++#+++.    ++. ++@                             @++ +++           .++ ++.               ++#+++.           @++ +++    ++#+++.           @++ +++    ++#+++.    ++.    @++ +++       +++..++     ++@@++               .++ ++.                  +++..++               ",
"++#+++..++ ++. ++@@++ +++    ++#+++.           @++ +++    ++#+++.                      ++#+++.           @++ +++    ++#+++.                      ++#+++.                      ++#+++.           @++ +++    ++#+++.           @++ +++           .++ ++.                              ++@@++        ++#+++..++ ++. ++@           ++#+++.                      ++#+++.    ++.    @++ +++    ++#+++.        ++@@++ +++    ++#+++.           @++ +++    ++#+++.                      ++#+++.    ++. ++@@++ +++    ++#+++.    ++. ++@                             @++ +++           .++ ++.               ++#+++.           @++ +++    ++#+++.           @++ +++    ++#+++.    ++.    @++ +++       +++..++     ++@@++               .++ ++.                  +++..++               ",
"                                                                                                                                                                                                                                                                                                                                                                                                                                                                                                                                                                                                                                                                                                                                                                              ",
"==%-==#           #== ===    ==%-==#           #== ===    ==%-==#           #== ===    ==%-==#           #== ===    ==%-==#                      ==%-==#                      ==%-==#           #== ===    ==%-==#           #== ===           $== ==.               ==%-==#        ==##==        ==%-==#    ==. ==##==        ==%-==#                      ==%-==#           #== ===    ==%-==#           #== ===    ==%-==#           #== ===    ==%-==#                      ==%-==#        ==##==        ==%-==#        ==##==        ==%-==#           #== ===           $== ==.               ==%-==#           #== ===       -==#$==     ==##==        ==%-==#$== ==. ==##== ===    ==%-==#           #== ===           $== ==.               ==%-==#                  ",
"++#+++.           @++ +++    ++#+++.           @++ +++    ++#+++.           @++ +++    ++#+++.           @++ +++    ++#+++.                      ++#+++.                      ++#+++.           @++ +++    ++#+++.           @++ +++           .++ ++.               ++#+++.        ++@@++        ++#+++.    ++. ++@@++        ++#+++.                      ++#+++.           @++ +++    ++#+++.           @++ +++    ++#+++.           @++ +++    ++#+++.                      ++#+++.        ++@@++        ++#+++.        ++@@++        ++#+++.           @++ +++           .++ ++.               ++#+++.           @++ +++       +++..++     ++@@++        ++#+++..++ ++. ++@@++ +++    ++#+++.           @++ +++           .++ ++.               ++#+++.                  ",
"++#+++.           @++ +++    ++#+++.           @++ +++    ++#+++.           @++ +++    ++#+++.           @++ +++    ++#+++.                      ++#+++.                      ++#+++.           @++ +++    ++#+++.           @++ +++           .++ ++.               ++#+++.        ++@@++        ++#+++.    ++. ++@@++        ++#+++.                      ++#+++.           @++ +++    ++#+++.           @++ +++    ++#+++.           @++ +++    ++#+++.                      ++#+++.        ++@@++        ++#+++.        ++@@++        ++#+++.           @++ +++           .++ ++.               ++#+++.           @++ +++       +++..++     ++@@++        ++#+++..++ ++. ++@@++ +++    ++#+++.           @++ +++           .++ ++.               ++#+++.                  ",
"                                                                                                                                                                                                                                                                                                                                                                                                                                                                                                                                                                                                                                                                                                                                                                              ",
"++#+++.           @++ +++    ++#+++..++ ++. ++@@++           +++..++ ++. ++@@++        ++#+++..++ ++. ++@@++        ++#+++..++ ++. ++@@++ +++    ++#+++.                         +++..++ ++. ++@@++        ++#+++.           @++ +++    ++#+++..++ ++. ++@@++           +++..++ ++. ++@           ++#+++.           @++ +++    ++#+++..++ ++. ++@@++ +++    ++#+++.           @++ +++    ++#+++.           @++ +++       +++..++ ++. ++@@++        ++#+++.                         +++..++ ++.    @++ +++    ++#+++.           @++ +++       +++..++ ++. ++@@++               .++ ++.                  +++..++ ++. ++@@++               .++ ++. ++@              +++..++     ++@@++        ++#                   +++           .++ ++.               ++#+++..++ ++. ++@@++ +++",
"++#+++.           @++ +++    ++#+++..++ ++. ++@@++           +++..++ ++. ++@@++        ++#+++..++ ++. ++@@++        ++#+++..++ ++. ++@@++ +++    ++#+++.                         +++..++ ++. ++@@++        ++#+++.           @++ +++    ++#+++..++ ++. ++@@++           +++..++ ++. ++@           ++#+++.           @++ +++    ++#+++..++ ++. ++@@++ +++    ++#+++.           @++ +++    ++#+++.           @++ +++       +++..++ ++. ++@@++        ++#+++.                         +++..++ ++.    @++ +++    ++#+++.           @++ +++       +++..++ ++. ++@@++               .++ ++.                  +++..++ ++. ++@@++               .++ ++. ++@              +++..++     ++@@++        ++#                   +++           .++ ++.               ++#+++..++ ++. ++@@++ +++",
"$$& $$            @$$ $$$    $$& $$ %$$ $$# $$@@$$            $$ %$$ $$# $$@@$$        $$& $$ %$$ $$# $$@@$$        $$& $$ %$$ $$# $$@@$$ $$$    $$& $$                           $$ %$$ $$# $$@@$$        $$& $$            @$$ $$$    $$& $$ %$$ $$# $$@@$$            $$ %$$ $$# $$@           $$& $$            @$$ $$$    $$& $$ %$$ $$# $$@@$$ $$$    $$& $$            @$$ $$$    $$& $$            @$$ $$$        $$ %$$ $$# $$@@$$        $$& $$                           $$ %$$ $$#    @$$ $$$    $$& $$            @$$ $$$        $$ %$$ $$# $$@@$$               %$$ $$#                   $$ %$$ $$# $$@@$$               %$$ $$# $$@               $$ %$$     $$@@$$        $$&                   $$$           %$$ $$#               $$& $$ %$$ $$# $$@@$$ $$$"};
