/* XPM */
static xpm_row_t const menu_numbers_xpm[] = {
"286 26 8 1",
" 	c None",
".	c #CE7100",
"+	c #CE7200",
"@	c #CF7200",
"#	c #CF7100",
"$	c #CD7100",
"%	c #CE7000",
"&	c #CD7200",
"      ..  ..  .. ..+                   ..  ..                 ..  ..  .. ..+ ..            ..  ..  .. ..+ ..                    .. ..+ ..        ... ..  ..  .. ..+ ..            ..  ..  .. ..+ ..        ... ..  ..  .. ..+ ..  ..        ..  ..  .. ..+ ..            ..  ..  .. ..+ ..    ",
"      @@.@@@++@@ @@+                  @@@++@@                 @@.@@@++@@ @@+ @@#           @@.@@@++@@ @@+ @@#                  +@@ @@+ @@#       @@@ @@.@@@++@@ @@+ @@#           @@.@@@++@@ @@+ @@#       @@@ @@.@@@++@@ @@+ @@#+@@        @@.@@@++@@ @@+ @@#           @@.@@@++@@ @@+ @@#   ",
"      @@.@@@++@@ @@+                  @@@++@@                 @@.@@@++@@ @@+ @@#           @@.@@@++@@ @@+ @@#                  +@@ @@+ @@#       @@@ @@.@@@++@@ @@+ @@#           @@.@@@++@@ @@+ @@#       @@@ @@.@@@++@@ @@+ @@#+@@        @@.@@@++@@ @@+ @@#           @@.@@@++@@ @@+ @@#   ",
"      @@@ @@ $@@ @@@                   @@ $@@                 @@@ @@ $@@ @@@ @@            @@@ @@ $@@ @@@ @@                   $@@ @@@ @@        @@@ @@@ @@ $@@ @@@ @@            @@@ @@ $@@ @@@ @@        @@@ @@@ @@ $@@ @@@ @@  @@        @@@ @@ $@@ @@@ @@            @@@ @@ $@@ @@@ @@    ",
"  ... ...        ..+ ..%           ...@.. @..             ... ...            ..%#..    ... ...            ..%#..           @.. @.. ..+ ..%       ... ...                      ... ...            ..%#..                   ..+ ..%       ... ...            ..%#..    ... ...            ..%#..",
"  @@@ @@.        @@+ @@#           @@.@@@++@@             @@@ @@.            @@#+@@    @@@ @@.            @@#+@@           @@@++@@ @@+ @@#       @@@ @@.                      @@@ @@.            @@#+@@                   @@+ @@#       @@@ @@.            @@#+@@    @@@ @@.            @@#+@@",
"  @@@ @@.        @@+ @@#           @@.@@@++@@             @@@ @@.            @@#+@@    @@@ @@.            @@#+@@           @@@++@@ @@+ @@#       @@@ @@.                      @@@ @@.            @@#+@@                   @@+ @@#       @@@ @@.            @@#+@@    @@@ @@.            @@#+@@",
"                                                                                                                                                                                                                                                                                              ",
"  @@@ @@.        @@+ @@#              @@@++@@                            @@+ @@#                          @@#+@@        @@.@@@+    @@+ @@#       @@@ @@.@@@++@@ @@+ @@#       @@@ @@.                                 +@@ @@+           @@@ @@.            @@#+@@    @@@ @@.            @@#+@@",
"  @@@ @@.        @@+ @@#              @@@++@@                            @@+ @@#                          @@#+@@        @@.@@@+    @@+ @@#       @@@ @@.@@@++@@ @@+ @@#       @@@ @@.                                 +@@ @@+           @@@ @@.            @@#+@@    @@@ @@.            @@#+@@",
"  @@@ @@.        @@+ @@#              @@@++@@                            @@+ @@#                          @@#+@@        @@.@@@+    @@+ @@#       @@@ @@.@@@++@@ @@+ @@#       @@@ @@.                                 +@@ @@+           @@@ @@.            @@#+@@    @@@ @@.            @@#+@@",
"                                                                                                                                                                                                                                                                                              ",
"  @@@ @@.        @@+ @@#              @@@++@@                    @@@++@@ @@+                      +@@ @@+ @@#       @@@ @@.        @@+ @@#                          @@#+@@    @@@ @@.@@@++@@ @@+ @@#              @@@++@@                   @@.@@@++@@ @@+ @@#           @@.@@@++@@ @@+ @@#+@@",
"  @@@ @@.        @@+ @@#              @@@++@@                    @@@++@@ @@+                      +@@ @@+ @@#       @@@ @@.        @@+ @@#                          @@#+@@    @@@ @@.@@@++@@ @@+ @@#              @@@++@@                   @@.@@@++@@ @@+ @@#           @@.@@@++@@ @@+ @@#+@@",
"  ... ..@        ..+ ..                .. +..                     .. +.. ..+                      +.. ..+ ..        ... ..@        ..+ ..                           .. ...    ... ..@ .. +.. ..+ ..                .. +..                   ..@ .. +.. ..+ ..            ..@ .. +.. ..+ .. ...",
"  +++ ++@        ++@ ++                ++ .++                 ++@ ++                                      ++ @++    +++ ++@ ++ .++ ++@ ++ @++                       ++ @++    +++ ++@            ++ @++            ++ .++               +++ ++@            ++ @++                       ++ @++",
"  @@@ @@.        @@+ @@#              @@@++@@                 @@.@@@+                                     @@#+@@    @@@ @@.@@@++@@ @@+ @@#+@@                       @@#+@@    @@@ @@.            @@#+@@           @@@++@@               @@@ @@.            @@#+@@                       @@#+@@",
"  @@@ @@.        @@+ @@#              @@@++@@                 @@.@@@+                                     @@#+@@    @@@ @@.@@@++@@ @@+ @@#+@@                       @@#+@@    @@@ @@.            @@#+@@           @@@++@@               @@@ @@.            @@#+@@                       @@#+@@",
"                                                                                                                                                                                                                                                                                              ",
"  @@@ @@.        @@. @@+              .@@%.@@             @@@ @@.                      @@@ @@.            @@+@@@                   @@. @@+       @@@ @@.            @@+@@@    @@@ @@.            @@+@@@           .@@%.@@               @@@ @@.            @@+@@@                   @@. @@+   ",
"  @@@ @@.        @@+ @@#              @@@++@@             @@@ @@.                      @@@ @@.            @@#+@@                   @@+ @@#       @@@ @@.            @@#+@@    @@@ @@.            @@#+@@           @@@++@@               @@@ @@.            @@#+@@                   @@+ @@#   ",
"  @@@ @@.        @@+ @@#              @@@++@@             @@@ @@.                      @@@ @@.            @@#+@@                   @@+ @@#       @@@ @@.            @@#+@@    @@@ @@.            @@#+@@           @@@++@@               @@@ @@.            @@#+@@                   @@+ @@#   ",
"                                                                                                                                                                                                                                                                                              ",
"      @@.@@@++@@ @@+           @@@ @@.@@@++@@ @@+ @@#     @@@ @@.@@@++@@ @@+ @@#+@@        @@.@@@++@@ @@+ @@#                      @@+ @@#           @@.@@@++@@ @@+ @@#           @@.@@@++@@ @@+ @@#              @@@++@@                   @@.@@@++@@ @@+ @@#              @@@++@@ @@+       ",
"      @@.@@@++@@ @@+           @@@ @@.@@@++@@ @@+ @@#     @@@ @@.@@@++@@ @@+ @@#+@@        @@.@@@++@@ @@+ @@#                      @@+ @@#           @@.@@@++@@ @@+ @@#           @@.@@@++@@ @@+ @@#              @@@++@@                   @@.@@@++@@ @@+ @@#              @@@++@@ @@+       ",
"      ++&+++ .++ ++#           +++ ++&+++ .++ ++# ++@     +++ ++&+++ .++ ++# ++@+++        ++&+++ .++ ++# ++@                      ++# ++@           ++&+++ .++ ++# ++@           ++&+++ .++ ++# ++@              +++ .++                   ++&+++ .++ ++# ++@              +++ .++ ++#       "};
