/* XPM */
static xpm_row_t const menu_font_selected_xpm[] = {
"750 26 5 1",
" 	c None",
".	c #CE7100",
"+	c #CE7200",
"@	c #CF7200",
"#	c #CF7100",
"        .. ..+ ..            ..  ..  .. ..+ ..  ..            ..  .. ..+ ..  ..        ..  ..  .. ..+ ..  ..        ..  ..  .. ..+ ..  .. ...    ..  ..  .. ..+ ..  .. ...        ..  .. ..+ ..  ..        ..  ..             .. ...    ..  ..  .. ..+ ..  ..                .. ..+ ..  .. ...    ..  ..             .. ...    ..  ..                       ..                    ...    ..  ..             .. ...        ..  .. ..+ ..  ..        ..  ..  .. ..+ ..  ..            ..  .. ..+ ..  ..        ..  ..  .. ..+ ..  ..            ..  .. ..+ ..  ..        ..  ..  .. ..+ ..  ..        ..  ..             .. ...    ..  ..             .. ...    ..  ..             .. ...    ..  ..             .. ...    ..  ..         ..  ..        ..  ..  .. ..+ ..  .. ...",
"       .@@ @@+ @@.           @@.@@@..@@ @@+ @@..@@           @@@..@@ @@+ @@..@@        @@.@@@..@@ @@+ @@..@@        @@.@@@..@@ @@+ @@..@@ @@@    @@.@@@..@@ @@+ @@..@@ @@@       @@@..@@ @@+ @@..@@        @@.@@@.           .@@ @@@    @@.@@@..@@ @@+ @@..@@               .@@ @@+ @@..@@ @@@    @@.@@@.           .@@ @@@    @@.@@@.                      @@.                   @@@    @@.@@@.           .@@ @@@       @@@..@@ @@+ @@..@@        @@.@@@..@@ @@+ @@..@@           @@@..@@ @@+ @@..@@        @@.@@@..@@ @@+ @@..@@           @@@..@@ @@+ @@..@@        @@.@@@..@@ @@+ @@..@@        @@.@@@.           .@@ @@@    @@.@@@.           .@@ @@@    @@.@@@.           .@@ @@@    @@.@@@.           .@@ @@@    @@.@@@.        @@..@@        @@.@@@..@@ @@+ @@..@@ @@@",
"       .@@ @@+ @@.           @@.@@@..@@ @@+ @@..@@           @@@..@@ @@+ @@..@@        @@.@@@..@@ @@+ @@..@@        @@.@@@..@@ @@+ @@..@@ @@@    @@.@@@..@@ @@+ @@..@@ @@@       @@@..@@ @@+ @@..@@        @@.@@@.           .@@ @@@    @@.@@@..@@ @@+ @@..@@               .@@ @@+ @@..@@ @@@    @@.@@@.           .@@ @@@    @@.@@@.                      @@.                   @@@    @@.@@@.           .@@ @@@       @@@..@@ @@+ @@..@@        @@.@@@..@@ @@+ @@..@@           @@@..@@ @@+ @@..@@        @@.@@@..@@ @@+ @@..@@           @@@..@@ @@+ @@..@@        @@.@@@..@@ @@+ @@..@@        @@.@@@.           .@@ @@@    @@.@@@.           .@@ @@@    @@.@@@.           .@@ @@@    @@.@@@.           .@@ @@@    @@.@@@.        @@..@@        @@.@@@..@@ @@+ @@..@@ @@@",
"       @@@ @@@ @@            @@+ @@ @@@ @@@ @@  @@            @@ @@@ @@@ @@  @@        @@+ @@ @@@ @@@ @@  @@        @@+ @@ @@@ @@@ @@  @@ @@@    @@+ @@ @@@ @@@ @@  @@ @@@        @@ @@@ @@@ @@  @@        @@+ @@             @@ @@@    @@+ @@ @@@ @@@ @@  @@               @@@ @@@ @@  @@ @@@    @@+ @@             @@ @@@    @@+ @@                       @@+                   @@@    @@+ @@             @@ @@@        @@ @@@ @@@ @@  @@        @@+ @@ @@@ @@@ @@  @@            @@ @@@ @@@ @@  @@        @@+ @@ @@@ @@@ @@  @@            @@ @@@ @@@ @@  @@        @@+ @@ @@@ @@@ @@  @@        @@+ @@             @@ @@@    @@+ @@             @@ @@@    @@+ @@             @@ @@@    @@+ @@             @@ @@@    @@+ @@         @@  @@        @@+ @@ @@@ @@@ @@  @@ @@@",
"    .. ...     ......        ..# ..            ... ...    ..# ..            ... ...    ..# ..            ... ...    ..# ..                       ..# ..                       ..# ..            ... ...    ..# ..            ... ...           ... ..+                              ......        ..# ..         ......        ..# ..                       ..# ..            ... ...    ..# .. ...        ... ...    ..# ..            ... ...    ..# ..            ... ...    ..# ..            ... ...    ..# ..            ... ...    ..# ..            ... ...           ... ..+               ..# ..            ... ...    ..# ..            ... ...    ..# ..            ... ...        .. ...     ......        ..# ..         ......                       ......    ",
"   @@@..@@     @@..@@        @@.@@@.           .@@ @@@    @@.@@@.           .@@ @@@    @@.@@@.           .@@ @@@    @@.@@@.                      @@.@@@.                      @@.@@@.           .@@ @@@    @@.@@@.           .@@ @@@           .@@ @@+                              @@..@@        @@.@@@.        @@..@@        @@.@@@.                      @@.@@@.           .@@ @@@    @@.@@@..@@        .@@ @@@    @@.@@@.           .@@ @@@    @@.@@@.           .@@ @@@    @@.@@@.           .@@ @@@    @@.@@@.           .@@ @@@    @@.@@@.           .@@ @@@           .@@ @@+               @@.@@@.           .@@ @@@    @@.@@@.           .@@ @@@    @@.@@@.           .@@ @@@       @@@..@@     @@..@@        @@.@@@.        @@..@@                       @@..@@    ",
"   @@@..@@     @@..@@        @@.@@@.           .@@ @@@    @@.@@@.           .@@ @@@    @@.@@@.           .@@ @@@    @@.@@@.                      @@.@@@.                      @@.@@@.           .@@ @@@    @@.@@@.           .@@ @@@           .@@ @@+                              @@..@@        @@.@@@.        @@..@@        @@.@@@.                      @@.@@@.           .@@ @@@    @@.@@@..@@        .@@ @@@    @@.@@@.           .@@ @@@    @@.@@@.           .@@ @@@    @@.@@@.           .@@ @@@    @@.@@@.           .@@ @@@    @@.@@@.           .@@ @@@           .@@ @@+               @@.@@@.           .@@ @@@    @@.@@@.           .@@ @@@    @@.@@@.           .@@ @@@       @@@..@@     @@..@@        @@.@@@.        @@..@@                       @@..@@    ",
"                                                                                                                                                                                                                                                                                                                                                                                                                                                                                                                                                                                                                                                                                                                                                                              ",
"@@.@@@.           .@@ @@@    @@.@@@.           .@@ @@@    @@.@@@.                      @@.@@@.           .@@ @@@    @@.@@@.                      @@.@@@.                      @@.@@@.                      @@.@@@.           .@@ @@@           .@@ @@+                              @@..@@        @@.@@@.    @@+ @@.           @@.@@@.                      @@.@@@..@@     @@..@@ @@@    @@.@@@..@@ @@+    .@@ @@@    @@.@@@.           .@@ @@@    @@.@@@.           .@@ @@@    @@.@@@.           .@@ @@@    @@.@@@.           .@@ @@@    @@.@@@.                             .@@ @@+               @@.@@@.           .@@ @@@    @@.@@@.           .@@ @@@    @@.@@@.           .@@ @@@           .@@ @@+ @@.           @@.@@@.        @@..@@                   @@+ @@.       ",
"@@.@@@.           .@@ @@@    @@.@@@.           .@@ @@@    @@.@@@.                      @@.@@@.           .@@ @@@    @@.@@@.                      @@.@@@.                      @@.@@@.                      @@.@@@.           .@@ @@@           .@@ @@+                              @@..@@        @@.@@@.    @@+ @@.           @@.@@@.                      @@.@@@..@@     @@..@@ @@@    @@.@@@..@@ @@+    .@@ @@@    @@.@@@.           .@@ @@@    @@.@@@.           .@@ @@@    @@.@@@.           .@@ @@@    @@.@@@.           .@@ @@@    @@.@@@.                             .@@ @@+               @@.@@@.           .@@ @@@    @@.@@@.           .@@ @@@    @@.@@@.           .@@ @@@           .@@ @@+ @@.           @@.@@@.        @@..@@                   @@+ @@.       ",
"@@.@@@.           .@@ @@@    @@.@@@.           .@@ @@@    @@.@@@.                      @@.@@@.           .@@ @@@    @@.@@@.                      @@.@@@.                      @@.@@@.                      @@.@@@.           .@@ @@@           .@@ @@+                              @@..@@        @@.@@@.    @@+ @@.           @@.@@@.                      @@.@@@..@@     @@..@@ @@@    @@.@@@..@@ @@+    .@@ @@@    @@.@@@.           .@@ @@@    @@.@@@.           .@@ @@@    @@.@@@.           .@@ @@@    @@.@@@.           .@@ @@@    @@.@@@.                             .@@ @@+               @@.@@@.           .@@ @@@    @@.@@@.           .@@ @@@    @@.@@@.           .@@ @@@           .@@ @@+ @@.           @@.@@@.        @@..@@                   @@+ @@.       ",
"                                                                                                                                                                                                                                                                                                                                                                                                                                                                                                                                                                                                                                                                                                                                                                              ",
"@@.@@@.           .@@ @@@    @@.@@@..@@ @@+ @@..@@        @@.@@@.                      @@.@@@.           .@@ @@@    @@.@@@..@@ @@+ @@..@@        @@.@@@..@@ @@+ @@..@@        @@.@@@.        @@..@@ @@@    @@.@@@..@@ @@+ @@..@@ @@@           .@@ @@+                              @@..@@        @@.@@@..@@ @@+               @@.@@@.                      @@.@@@..@@ @@+ @@..@@ @@@    @@.@@@.    @@+ @@..@@ @@@    @@.@@@.           .@@ @@@    @@.@@@..@@ @@+ @@..@@        @@.@@@.           .@@ @@@    @@.@@@..@@ @@+ @@..@@           @@@..@@ @@+ @@..@@               .@@ @@+               @@.@@@.           .@@ @@@    @@.@@@.           .@@ @@@    @@.@@@.           .@@ @@@           .@@ @@+ @@.              @@@..@@ @@+ @@.                  .@@ @@+           ",
"@@.@@@.           .@@ @@@    @@.@@@..@@ @@+ @@..@@        @@.@@@.                      @@.@@@.           .@@ @@@    @@.@@@..@@ @@+ @@..@@        @@.@@@..@@ @@+ @@..@@        @@.@@@.        @@..@@ @@@    @@.@@@..@@ @@+ @@..@@ @@@           .@@ @@+                              @@..@@        @@.@@@..@@ @@+               @@.@@@.                      @@.@@@..@@ @@+ @@..@@ @@@    @@.@@@.    @@+ @@..@@ @@@    @@.@@@.           .@@ @@@    @@.@@@..@@ @@+ @@..@@        @@.@@@.           .@@ @@@    @@.@@@..@@ @@+ @@..@@           @@@..@@ @@+ @@..@@               .@@ @@+               @@.@@@.           .@@ @@@    @@.@@@.           .@@ @@@    @@.@@@.           .@@ @@@           .@@ @@+ @@.              @@@..@@ @@+ @@.                  .@@ @@+           ",
"..@ ..            @.. ...    ..@ .. +.. ..+ ..@@..        ..@ ..                       ..@ ..            @.. ...    ..@ .. +.. ..+ ..@@..        ..@ .. +.. ..+ ..@@..        ..@ ..         ..@@.. ...    ..@ .. +.. ..+ ..@@.. ...           +.. ..+                              ..@@..        ..@ .. +.. ..+               ..@ ..                       ..@ .. +.. ..+ ..@@.. ...    ..@ ..     ..+ ..@@.. ...    ..@ ..            @.. ...    ..@ .. +.. ..+ ..@@..        ..@ ..            @.. ...    ..@ .. +.. ..+ ..@@..            .. +.. ..+ ..@@..               +.. ..+               ..@ ..            @.. ...    ..@ ..            @.. ...    ..@ ..            @.. ...           +.. ..+ ..@               .. +.. ..+ ..@                  +.. ..+           ",
"++@ ++ @++ ++@ ++  ++ +++    ++@ ++             ++ +++    ++@ ++                       ++@ ++             ++ +++    ++@ ++                       ++@ ++                       ++@ ++             ++ +++    ++@ ++             ++ +++           @++ ++@                              ++  ++        ++@ ++ @++ ++@ ++            ++@ ++                       ++@ ++     ++@     ++ +++    ++@ ++         ++  ++ +++    ++@ ++             ++ +++    ++@ ++                       ++@ ++     ++@ ++  ++ +++    ++@ ++     ++@ ++                               ++ +++           @++ ++@               ++@ ++             ++ +++    ++@ ++             ++ +++    ++@ ++     ++@     ++ +++        ++ @++     ++  ++               @++ ++@                   ++ @++               ",
"@@.@@@..@@ @@+ @@..@@ @@@    @@.@@@.           .@@ @@@    @@.@@@.                      @@.@@@.           .@@ @@@    @@.@@@.                      @@.@@@.                      @@.@@@.           .@@ @@@    @@.@@@.           .@@ @@@           .@@ @@+                              @@..@@        @@.@@@..@@ @@+ @@.           @@.@@@.                      @@.@@@.    @@+    .@@ @@@    @@.@@@.        @@..@@ @@@    @@.@@@.           .@@ @@@    @@.@@@.                      @@.@@@.    @@+ @@..@@ @@@    @@.@@@.    @@+ @@.                             .@@ @@@           .@@ @@+               @@.@@@.           .@@ @@@    @@.@@@.           .@@ @@@    @@.@@@.    @@+    .@@ @@@       @@@..@@     @@..@@               .@@ @@+                  @@@..@@               ",
"@@.@@@..@@ @@+ @@..@@ @@@    @@.@@@.           .@@ @@@    @@.@@@.                      @@.@@@.           .@@ @@@    @@.@@@.                      @@.@@@.                      @@.@@@.           .@@ @@@    @@.@@@.           .@@ @@@           .@@ @@+                              @@..@@        @@.@@@..@@ @@+ @@.           @@.@@@.                      @@.@@@.    @@+    .@@ @@@    @@.@@@.        @@..@@ @@@    @@.@@@.           .@@ @@@    @@.@@@.                      @@.@@@.    @@+ @@..@@ @@@    @@.@@@.    @@+ @@.                             .@@ @@@           .@@ @@+               @@.@@@.           .@@ @@@    @@.@@@.           .@@ @@@    @@.@@@.    @@+    .@@ @@@       @@@..@@     @@..@@               .@@ @@+                  @@@..@@               ",
"                                                                                                                                                                                                                                                                                                                                                                                                                                                                                                                                                                                                                                                                                                                                                                              ",
"@@..@@@           .@@ @@@    @@..@@@           .@@ @@@    @@..@@@           .@@ @@@    @@..@@@           .@@ @@@    @@..@@@                      @@..@@@                      @@..@@@           .@@ @@@    @@..@@@           .@@ @@@           +@@ @@.               @@..@@@        @@..@@        @@..@@@    @@. @@..@@        @@..@@@                      @@..@@@           .@@ @@@    @@..@@@           .@@ @@@    @@..@@@           .@@ @@@    @@..@@@                      @@..@@@        @@..@@        @@..@@@        @@..@@        @@..@@@           .@@ @@@           +@@ @@.               @@..@@@           .@@ @@@       .@@@+@@     @@..@@        @@..@@@+@@ @@. @@..@@ @@@    @@..@@@           .@@ @@@           +@@ @@.               @@..@@@                  ",
"@@.@@@.           .@@ @@@    @@.@@@.           .@@ @@@    @@.@@@.           .@@ @@@    @@.@@@.           .@@ @@@    @@.@@@.                      @@.@@@.                      @@.@@@.           .@@ @@@    @@.@@@.           .@@ @@@           .@@ @@+               @@.@@@.        @@..@@        @@.@@@.    @@+ @@..@@        @@.@@@.                      @@.@@@.           .@@ @@@    @@.@@@.           .@@ @@@    @@.@@@.           .@@ @@@    @@.@@@.                      @@.@@@.        @@..@@        @@.@@@.        @@..@@        @@.@@@.           .@@ @@@           .@@ @@+               @@.@@@.           .@@ @@@       @@@..@@     @@..@@        @@.@@@..@@ @@+ @@..@@ @@@    @@.@@@.           .@@ @@@           .@@ @@+               @@.@@@.                  ",
"@@.@@@.           .@@ @@@    @@.@@@.           .@@ @@@    @@.@@@.           .@@ @@@    @@.@@@.           .@@ @@@    @@.@@@.                      @@.@@@.                      @@.@@@.           .@@ @@@    @@.@@@.           .@@ @@@           .@@ @@+               @@.@@@.        @@..@@        @@.@@@.    @@+ @@..@@        @@.@@@.                      @@.@@@.           .@@ @@@    @@.@@@.           .@@ @@@    @@.@@@.           .@@ @@@    @@.@@@.                      @@.@@@.        @@..@@        @@.@@@.        @@..@@        @@.@@@.           .@@ @@@           .@@ @@+               @@.@@@.           .@@ @@@       @@@..@@     @@..@@        @@.@@@..@@ @@+ @@..@@ @@@    @@.@@@.           .@@ @@@           .@@ @@+               @@.@@@.                  ",
"                                                                                                                                                                                                                                                                                                                                                                                                                                                                                                                                                                                                                                                                                                                                                                              ",
"@@.@@@.           .@@ @@@    @@.@@@..@@ @@+ @@..@@           @@@..@@ @@+ @@..@@        @@.@@@..@@ @@+ @@..@@        @@.@@@..@@ @@+ @@..@@ @@@    @@.@@@.                         @@@..@@ @@+ @@..@@        @@.@@@.           .@@ @@@    @@.@@@..@@ @@+ @@..@@           @@@..@@ @@+ @@.           @@.@@@.           .@@ @@@    @@.@@@..@@ @@+ @@..@@ @@@    @@.@@@.           .@@ @@@    @@.@@@.           .@@ @@@       @@@..@@ @@+ @@..@@        @@.@@@.                         @@@..@@ @@+    .@@ @@@    @@.@@@.           .@@ @@@       @@@..@@ @@+ @@..@@               .@@ @@+                  @@@..@@ @@+ @@..@@               .@@ @@+ @@.              @@@..@@     @@..@@        @@.                   @@@           .@@ @@+               @@.@@@..@@ @@+ @@..@@ @@@",
"@@.@@@.           .@@ @@@    @@.@@@..@@ @@+ @@..@@           @@@..@@ @@+ @@..@@        @@.@@@..@@ @@+ @@..@@        @@.@@@..@@ @@+ @@..@@ @@@    @@.@@@.                         @@@..@@ @@+ @@..@@        @@.@@@.           .@@ @@@    @@.@@@..@@ @@+ @@..@@           @@@..@@ @@+ @@.           @@.@@@.           .@@ @@@    @@.@@@..@@ @@+ @@..@@ @@@    @@.@@@.           .@@ @@@    @@.@@@.           .@@ @@@       @@@..@@ @@+ @@..@@        @@.@@@.                         @@@..@@ @@+    .@@ @@@    @@.@@@.           .@@ @@@       @@@..@@ @@+ @@..@@               .@@ @@+                  @@@..@@ @@+ @@..@@               .@@ @@+ @@.              @@@..@@     @@..@@        @@.                   @@@           .@@ @@+               @@.@@@..@@ @@+ @@..@@ @@@",
"++@ ++            #++ +++    ++@ ++ +++ ++# ++##++            ++ +++ ++# ++##++        ++@ ++ +++ ++# ++##++        ++@ ++ +++ ++# ++##++ +++    ++@ ++                           ++ +++ ++# ++##++        ++@ ++            #++ +++    ++@ ++ +++ ++# ++##++            ++ +++ ++# ++#           ++@ ++            #++ +++    ++@ ++ +++ ++# ++##++ +++    ++@ ++            #++ +++    ++@ ++            #++ +++        ++ +++ ++# ++##++        ++@ ++                           ++ +++ ++#    #++ +++    ++@ ++            #++ +++        ++ +++ ++# ++##++               +++ ++#                   ++ +++ ++# ++##++               +++ ++# ++#               ++ +++     ++##++        ++@                   +++           +++ ++#               ++@ ++ +++ ++# ++##++ +++"};
