/* XPM */
static xpm_row_t const explosion13_xpm[] = {
"20 20 109 2",
"  	c None",
". 	c #FD6846",
"+ 	c #FD6845",
"@ 	c #FE7C53",
"# 	c #FE8056",
"$ 	c #FD6745",
"% 	c #FC6644",
"& 	c #FE754E",
"* 	c #FF9C69",
"= 	c #FFA771",
"- 	c #FE714B",
"; 	c #FD6947",
"> 	c #FD6A48",
", 	c #FE6947",
"' 	c #FE754F",
") 	c #FF8E60",
"! 	c #FE714C",
"~ 	c #FF8E5F",
"{ 	c #FFAC75",
"] 	c #FE704B",
"^ 	c #FD6A47",
"/ 	c #FE7B53",
"( 	c #FFA36E",
"_ 	c #FF8157",
": 	c #FF7B53",
"< 	c #FF9061",
"[ 	c #FF9D69",
"} 	c #FE7851",
"| 	c #FD6746",
"1 	c #FE744F",
"2 	c #FE7852",
"3 	c #FF8559",
"4 	c #FE744D",
"5 	c #FD6B46",
"6 	c #FF9362",
"7 	c #FF9A67",
"8 	c #FE8459",
"9 	c #FE7952",
"0 	c #FF865B",
"a 	c #FE734D",
"b 	c #FE6A47",
"c 	c #FE6F4B",
"d 	c #FFC484",
"e 	c #FF9966",
"f 	c #FE7C52",
"g 	c #FE9F6B",
"h 	c #FFBD80",
"i 	c #FFA972",
"j 	c #FE8B5E",
"k 	c #FE8F60",
"l 	c #FE764F",
"m 	c #FFA571",
"n 	c #FF8B5D",
"o 	c #FE6E4A",
"p 	c #FD7B53",
"q 	c #FFB67B",
"r 	c #FE8257",
"s 	c #FF9E6A",
"t 	c #FE9865",
"u 	c #FFB57A",
"v 	c #FFA670",
"w 	c #FD7A51",
"x 	c #FE8559",
"y 	c #FFB479",
"z 	c #FFD28E",
"A 	c #FFAB74",
"B 	c #FC6744",
"C 	c #FE7A52",
"D 	c #FD714B",
"E 	c #FE8C5E",
"F 	c #FC6D48",
"G 	c #FD7850",
"H 	c #FFB478",
"I 	c #FFEAA1",
"J 	c #FFE89E",
"K 	c #FFB278",
"L 	c #FF885B",
"M 	c #FFA16C",
"N 	c #FFDC95",
"O 	c #FFDB93",
"P 	c #FFA46E",
"Q 	c #FD734D",
"R 	c #FD724D",
"S 	c #FD6D49",
"T 	c #FD6F4A",
"U 	c #FD6B47",
"V 	c #FD6C48",
"W 	c #FF895C",
"X 	c #FFD48F",
"Y 	c #FD6946",
"Z 	c #FF7F56",
"` 	c #FE6B47",
" .	c #FC6B47",
"..	c #FD714C",
"+.	c #FE9061",
"@.	c #FF9967",
"#.	c #FF9564",
"$.	c #FD6C49",
"%.	c #FE7B52",
"&.	c #FD6E4A",
"*.	c #FE9C6A",
"=.	c #FF9163",
"-.	c #FF9565",
";.	c #FD6B48",
">.	c #FE7750",
",.	c #FD754E",
"'.	c #FD7750",
").	c #FD6B49",
"!.	c #FE7550",
"                                        ",
"                                        ",
"                                        ",
"        .   + @ #                       ",
"        $ % & * = - . ; >               ",
"      , ' ) ! ~ { ] . ^                 ",
"      . / ( _ : < [ } |     1 2 ;       ",
"        - 3 4 5 6 7 8 #   + 9 0 a b c   ",
"        8 d e f g h i j k l 6 m n o     ",
"        p q r s t u v w x y z A 3 B     ",
"        ^ ^ } C D l E F G H I J K +     ",
"        + + + + B % + / L M N O P Q     ",
"        . + R S T U V W ~ = X ( }       ",
"        Y Z a `  ...+.i < @.#.C         ",
"        B $.^ %.  &.*.= =.-.W ! ;       ",
"              ^ $.$.;.>.,.'.;           ",
"                Y > ).!.                ",
"                    ^                   ",
"                                        ",
"                                        "};
