/* XPM */
static xpm_row_t const explosion3_xpm[] = {
"20 20 77 1",
" 	c None",
".	c #FE6B49",
"+	c #FE6B48",
"@	c #FE6D4A",
"#	c #FF9163",
"$	c #FF744F",
"%	c #FF8158",
"&	c #FFB179",
"*	c #FF7A53",
"=	c #FF7650",
"-	c #FFA772",
";	c #FFE89E",
">	c #FFE0B7",
",	c #FFAB7C",
"'	c #FE7C54",
")	c #FF9E6C",
"!	c #FE744F",
"~	c #FE6C49",
"{	c #FFD19E",
"]	c #FFEDB0",
"^	c #FFFCDF",
"/	c #FFC89A",
"(	c #FE7B55",
"_	c #FE7C55",
":	c #FE704C",
"<	c #FFA570",
"[	c #FFEEC1",
"}	c #FFFEE0",
"|	c #FFF5C6",
"1	c #FFF7DB",
"2	c #FFDEAF",
"3	c #FF9F6E",
"4	c #FF9D6D",
"5	c #FF8A5E",
"6	c #FF8B5E",
"7	c #FFF2C1",
"8	c #FFFEE5",
"9	c #FFF4D8",
"0	c #FFFEF2",
"a	c #FFFCE8",
"b	c #FFE2A5",
"c	c #FFDF9F",
"d	c #FFA976",
"e	c #FE7851",
"f	c #FFA97A",
"g	c #FFD59B",
"h	c #FFEDC2",
"i	c #FFFEF1",
"j	c #FFFEEF",
"k	c #FFFCE4",
"l	c #FFD49E",
"m	c #FFBE85",
"n	c #FFA16E",
"o	c #FFB37B",
"p	c #FFEDC3",
"q	c #FFF2CC",
"r	c #FFFFF4",
"s	c #FFC4A5",
"t	c #FF9263",
"u	c #FE6F4B",
"v	c #FFAB7A",
"w	c #FF9868",
"x	c #FF9264",
"y	c #FFB786",
"z	c #FFFBCA",
"A	c #FFD7A0",
"B	c #FF8D60",
"C	c #FE6A47",
"D	c #FFAF77",
"E	c #FFF3AD",
"F	c #FFD197",
"G	c #FE714D",
"H	c #FF885C",
"I	c #FFD398",
"J	c #FFAB76",
"K	c #FE6A48",
"L	c #FE724E",
"                    ",
"                    ",
"                    ",
"        ..          ",
"        +. @        ",
"       #$@%&*       ",
"     =-;>,')!       ",
"     ~{]^/(_:@      ",
"     <[}|12345      ",
"     67890abcd      ",
"     efghijklm      ",
"      nonpqrst      ",
"      uvwxyzAB      ",
"     +t: CDEF       ",
"      G~  HIJ       ",
"         K+L        ",
"                    ",
"                    ",
"                    ",
"                    "};
