/* XPM */
static xpm_row_t const explosion6_xpm[] = {
"20 20 113 2",
"  	c None",
". 	c #FE6A48",
"+ 	c #FE744E",
"@ 	c #FE704C",
"# 	c #FE9E6E",
"$ 	c #FE7B54",
"% 	c #FFB986",
"& 	c #FFD2A8",
"* 	c #FFD3A6",
"= 	c #FF9969",
"- 	c #FFB179",
"; 	c #FFA06E",
"> 	c #FE9465",
", 	c #FFCC96",
"' 	c #FFFDEE",
") 	c #FFFFFF",
"! 	c #FFFFFE",
"~ 	c #FFF1CF",
"{ 	c #FFCD8E",
"] 	c #FFFCCE",
"^ 	c #FFA36F",
"/ 	c #FFD598",
"( 	c #FFFFE2",
"_ 	c #FFFFF9",
": 	c #FFFFF6",
"< 	c #FFFFFB",
"[ 	c #FFF5C6",
"} 	c #FFF0BB",
"| 	c #FE8B5F",
"1 	c #FE6F4B",
"2 	c #FF8A5E",
"3 	c #FFE1A0",
"4 	c #FFFFF4",
"5 	c #FFFEE9",
"6 	c #FFDC98",
"7 	c #FFA575",
"8 	c #FE895E",
"9 	c #FFD091",
"0 	c #FE6D4A",
"a 	c #FFAB74",
"b 	c #FFFDC7",
"c 	c #FFFFF1",
"d 	c #FFFFF8",
"e 	c #FFFFFD",
"f 	c #FFFBF5",
"g 	c #FFEAB5",
"h 	c #FFF7BF",
"i 	c #FFFBEB",
"j 	c #FFFFF3",
"k 	c #FFECC8",
"l 	c #FF7E56",
"m 	c #FE6B49",
"n 	c #FE6B48",
"o 	c #FFBD84",
"p 	c #FFFCDA",
"q 	c #FFFCE2",
"r 	c #FFFFF2",
"s 	c #FFF8EC",
"t 	c #FFFFFA",
"u 	c #FFF9D5",
"v 	c #FE8A5E",
"w 	c #FFAF7A",
"x 	c #FFEBC2",
"y 	c #FFDFB2",
"z 	c #FFFEF9",
"A 	c #FFE4C1",
"B 	c #FE7851",
"C 	c #FE8358",
"D 	c #FFAC76",
"E 	c #FFD09C",
"F 	c #FFFFF7",
"G 	c #FFFDE7",
"H 	c #FFEBCD",
"I 	c #FEA27D",
"J 	c #FFA370",
"K 	c #FFBF86",
"L 	c #FFF4C6",
"M 	c #FFF1AB",
"N 	c #FFFCCA",
"O 	c #FFFEEE",
"P 	c #FFF3CD",
"Q 	c #FFFFFC",
"R 	c #FFF9D2",
"S 	c #FFA274",
"T 	c #FE7E56",
"U 	c #FFE8B5",
"V 	c #FFE7B1",
"W 	c #FFF4B9",
"X 	c #FFEFB1",
"Y 	c #FFEDB5",
"Z 	c #FFFDEA",
"` 	c #FFC787",
" .	c #FE754F",
"..	c #FFAD77",
"+.	c #FFEAB6",
"@.	c #FFC989",
"#.	c #FFF1C4",
"$.	c #FFEBBE",
"%.	c #FFE5A0",
"&.	c #FFFFDD",
"*.	c #FFF7D6",
"=.	c #FF9665",
"-.	c #FF8459",
";.	c #FE8258",
">.	c #FF7D55",
",.	c #FFAC75",
"'.	c #FFD897",
").	c #FFC68C",
"!.	c #FE7F56",
"~.	c #FE6E4A",
"{.	c #FF7751",
"].	c #FF7F57",
"^.	c #FE724E",
"                                        ",
"                                        ",
"                . .                     ",
"                + @   # $               ",
"            % & * = $ - ;               ",
"        > , ' ) ! ~ { ] ^ .             ",
"        / ( _ : ) < [ } | 1             ",
"      2 3 4 ! ! ! ) 5 6 7 8 9 ; 0       ",
"      a b ! c d e ) f g h i j k l m     ",
"      n o p q r ) ) ) s t ) ) u v       ",
"        n w x y < ) ) z ! ) ) A B       ",
"          C D E F G : _ ) e H I         ",
"        J K L M N O P < Q R S           ",
"        T U t V W X Y e Z `  .          ",
"          ..+.@.#.$.%.&.*.=.            ",
"            B -.;.>.,.'.).!.            ",
"                  ~.{.].^.              ",
"                                        ",
"                                        ",
"                                        "};
