/* XPM */
static xpm_row_t const explosion4_xpm[] = {
"20 20 101 2",
"  	c None",
". 	c #FE6B49",
"+ 	c #FF6C4A",
"@ 	c #FE6A47",
"# 	c #FE6B48",
"$ 	c #FF895E",
"% 	c #FE7651",
"& 	c #FE724C",
"* 	c #FFA16D",
"= 	c #FFC68D",
"- 	c #FFC493",
"; 	c #FFAF79",
"> 	c #FF9668",
", 	c #FFE7AD",
"' 	c #FF9163",
") 	c #FF9263",
"! 	c #FFF4B1",
"~ 	c #FFFED7",
"{ 	c #FFFFFD",
"] 	c #FFE7B4",
"^ 	c #FF8D61",
"/ 	c #FF9D6C",
"( 	c #FE734F",
"_ 	c #FE6A48",
": 	c #FE6C49",
"< 	c #FFB17B",
"[ 	c #FFFFF8",
"} 	c #FFFFDE",
"| 	c #FFFFF0",
"1 	c #FFFBDD",
"2 	c #FFEAB7",
"3 	c #FFBF86",
"4 	c #FE7F58",
"5 	c #FF835A",
"6 	c #FE744F",
"7 	c #FFE6B1",
"8 	c #FFFFFB",
"9 	c #FFFEE7",
"0 	c #FFFBE0",
"a 	c #FFF8E2",
"b 	c #FFC087",
"c 	c #FF9969",
"d 	c #FFC98A",
"e 	c #FFAE77",
"f 	c #FE7E55",
"g 	c #FE704C",
"h 	c #FFD498",
"i 	c #FFFFEB",
"j 	c #FFFCEE",
"k 	c #FFFFFE",
"l 	c #FFFFF9",
"m 	c #FFFCE8",
"n 	c #FFFDE1",
"o 	c #FFF8D5",
"p 	c #FFA771",
"q 	c #FFD89F",
"r 	c #FFE0AC",
"s 	c #FFFAEF",
"t 	c #FFFDF7",
"u 	c #FFFDEB",
"v 	c #FFF5CC",
"w 	c #FFF7D1",
"x 	c #FFB17A",
"y 	c #FE7E56",
"z 	c #FFC288",
"A 	c #FFA773",
"B 	c #FFD8B1",
"C 	c #FFFFFA",
"D 	c #FFF9E1",
"E 	c #FFFFEF",
"F 	c #FFE2CC",
"G 	c #FFB078",
"H 	c #FE7750",
"I 	c #FE7953",
"J 	c #FFA272",
"K 	c #FFD6A0",
"L 	c #FF9767",
"M 	c #FFE6BD",
"N 	c #FFFBD8",
"O 	c #FFEBC6",
"P 	c #FF9C6A",
"Q 	c #FF7952",
"R 	c #FFB57B",
"S 	c #FF895D",
"T 	c #FE724D",
"U 	c #FFCE8F",
"V 	c #FFD995",
"W 	c #FFFFE2",
"X 	c #FFE1A9",
"Y 	c #FF9867",
"Z 	c #FF9565",
"` 	c #FE6E4A",
" .	c #FE6947",
"..	c #FE6D4A",
"+.	c #FFAF77",
"@.	c #FFEEBB",
"#.	c #FFDBA1",
"$.	c #FF7D54",
"%.	c #FE6F4B",
"&.	c #FF8B5F",
"*.	c #FE7C54",
"                                        ",
"                                        ",
"                  .                     ",
"                . +                     ",
"              @ # .   $ %               ",
"          & * = - ; > , '               ",
"          ) ! ~ { ] ^ / ( _             ",
"        : < [ } | 1 2 3 4 5 6           ",
"        ) 7 8 9 0 { a b c d e f         ",
"        g h i 9 j k l m n o p g         ",
"          f q r s { t u v w x           ",
"          y z A B C D E F G H           ",
"          I J K L M N [ O P _           ",
"          Q R S T U V W X Y             ",
"            Z `  ...+.@.#.$.            ",
"                  @ %.&.*.              ",
"                                        ",
"                                        ",
"                                        ",
"                                        "};
