/* XPM */
static xpm_row_t const explosion2_xpm[] = {
"20 20 54 1",
" 	c None",
".	c #FE6B49",
"+	c #FF6B49",
"@	c #FE6A48",
"#	c #FE7B54",
"$	c #FE6C49",
"%	c #FE8359",
"&	c #FF8F63",
"*	c #FE6F4B",
"=	c #FF9767",
"-	c #FFBA7F",
";	c #FE6C4A",
">	c #FE7D55",
",	c #FFD28F",
"'	c #FFF1B3",
")	c #FFA06F",
"!	c #FF7650",
"~	c #FF7952",
"{	c #FE6B48",
"]	c #FF9969",
"^	c #FFDE9D",
"/	c #FFD593",
"(	c #FFB58F",
"_	c #FFB186",
":	c #FE754F",
"<	c #FF8F61",
"[	c #FFD899",
"}	c #FFEEBD",
"|	c #FFF9E1",
"1	c #FFE6B6",
"2	c #FF9E6C",
"3	c #FFA26E",
"4	c #FE6D4A",
"5	c #FFD5B8",
"6	c #FFF1C1",
"7	c #FFE2AD",
"8	c #FFB983",
"9	c #FF8A5D",
"0	c #FE704C",
"a	c #FE7D56",
"b	c #FF9C6F",
"c	c #FFAB77",
"d	c #FFE7AE",
"e	c #FF8B5E",
"f	c #FE7650",
"g	c #FE734E",
"h	c #FFE6A5",
"i	c #FF9C6A",
"j	c #FF865B",
"k	c #FF7B54",
"l	c #FF8A5E",
"m	c #FFC083",
"n	c #FE6E4A",
"o	c #FE8157",
"                    ",
"                    ",
"                    ",
"         .          ",
"        .+          ",
"        @. #        ",
"      $%&*=-;       ",
"      >,')!~{       ",
"      ]^/(_:        ",
"      <[}|123       ",
"      4=567890      ",
"       $abcdef      ",
"      g   =hi       ",
"      jk  lmn       ",
"          .o        ",
"                    ",
"                    ",
"                    ",
"                    ",
"                    "};
