/* XPM */
static xpm_row_t const explosion5_xpm[] = {
"20 20 108 2",
"  	c None",
". 	c #FE6B49",
"+ 	c #FF6E4B",
"@ 	c #FF704C",
"# 	c #FF8359",
"$ 	c #FF9D6A",
"% 	c #FFA36F",
"& 	c #FF8057",
"* 	c #FE714D",
"= 	c #FFD095",
"- 	c #FF9A69",
"; 	c #FFA872",
"> 	c #FFE2A4",
", 	c #FFFFE6",
"' 	c #FFFFF3",
") 	c #FFDEA8",
"! 	c #FF9867",
"~ 	c #FFE39B",
"{ 	c #FF9D6B",
"] 	c #FE6B48",
"^ 	c #FF9263",
"/ 	c #FFFBBB",
"( 	c #FFFFED",
"_ 	c #FFFFE8",
": 	c #FFFFFD",
"< 	c #FFFADC",
"[ 	c #FFD09A",
"} 	c #FFD491",
"| 	c #FE7D55",
"1 	c #FE6C49",
"2 	c #FFA672",
"3 	c #FFFDE6",
"4 	c #FFFEDC",
"5 	c #FFFFF7",
"6 	c #FFFFFB",
"7 	c #FFF6CF",
"8 	c #FFC788",
"9 	c #FE7D56",
"0 	c #FE8C61",
"a 	c #FFA873",
"b 	c #FE754F",
"c 	c #FFCF94",
"d 	c #FFFFF9",
"e 	c #FFFDEF",
"f 	c #FFFDF0",
"g 	c #FFFFFF",
"h 	c #FFFEFB",
"i 	c #FFF5B9",
"j 	c #FFE4B1",
"k 	c #FFE0BD",
"l 	c #FFD092",
"m 	c #FF9C6A",
"n 	c #FE6D4A",
"o 	c #FF9162",
"p 	c #FFF9D0",
"q 	c #FFFFEC",
"r 	c #FFFFE5",
"s 	c #FFFFFA",
"t 	c #FFFCF2",
"u 	c #FFFFFC",
"v 	c #FFFCE1",
"w 	c #FFA26E",
"x 	c #FE6A48",
"y 	c #FF996A",
"z 	c #FFEBBC",
"A 	c #FFE6B0",
"B 	c #FFFEF6",
"C 	c #FFFFFE",
"D 	c #FFFEF7",
"E 	c #FFFBE9",
"F 	c #FE9163",
"G 	c #FE8056",
"H 	c #FFB982",
"I 	c #FFC892",
"J 	c #FFFCE9",
"K 	c #FFFFF1",
"L 	c #FFFEF3",
"M 	c #FFF3CD",
"N 	c #FFA879",
"O 	c #FFAD76",
"P 	c #FFF2C0",
"Q 	c #FFF6D3",
"R 	c #FFF2B8",
"S 	c #FFFCE4",
"T 	c #FFF5E1",
"U 	c #FFB67B",
"V 	c #FE7952",
"W 	c #FFAB75",
"X 	c #FFF1B1",
"Y 	c #FFE7B3",
"Z 	c #FFDCA9",
"` 	c #FFF6BC",
" .	c #FFEAA9",
"..	c #FFFFF4",
"+.	c #FFF3CF",
"@.	c #FFAA73",
"#.	c #FE895D",
"$.	c #FFA16D",
"%.	c #FFB57E",
"&.	c #FFCE8C",
"*.	c #FFFCD9",
"=.	c #FFF0BD",
"-.	c #FF885C",
";.	c #FE6946",
">.	c #FE6947",
",.	c #FF8D60",
"'.	c #FFB681",
").	c #FE744F",
"                                        ",
"                                        ",
"                . .                     ",
"                + @                     ",
"            # $ % & * = -               ",
"          ; > , ' ) ! ~ { ]             ",
"        ^ / ( _ : < [ } | 1             ",
"        2 3 : 4 5 6 7 8 9 0 a b         ",
"        c d d e f g h i j k l m n       ",
"        o p q r s g 6 t u g v w x       ",
"        ] y z A B g C D g g E F         ",
"          G H I J d K L : M N           ",
"        0 O P Q R ' S u T U V           ",
"          W X Y Z `  ...+.@.            ",
"          #.; ; $.%.&.*.=.-.            ",
"            ;.;.>.1 ,.'.%               ",
"                  1 1 ).                ",
"                                        ",
"                                        ",
"                                        "};
