/* XPM */
static xpm_row_t const explosion11_xpm[] = {
"20 20 165 2",
"  	c None",
". 	c #FE6A47",
"+ 	c #FD6946",
"@ 	c #FD6947",
"# 	c #FE7951",
"$ 	c #FF9263",
"% 	c #FEA572",
"& 	c #FD7952",
"* 	c #FE6B48",
"= 	c #FD6C48",
"- 	c #FD6847",
"; 	c #FD6B48",
"> 	c #FE7B52",
", 	c #FFC98B",
"' 	c #FFF9CE",
") 	c #FFFDDC",
"! 	c #FFC687",
"~ 	c #FF875B",
"{ 	c #FFAC75",
"] 	c #FF9867",
"^ 	c #FE754F",
"/ 	c #FFBC7F",
"( 	c #FFE8AE",
"_ 	c #FFE49D",
": 	c #FFFDD5",
"< 	c #FFFEDD",
"[ 	c #FFD38E",
"} 	c #FFA16C",
"| 	c #FFAE77",
"1 	c #FE875C",
"2 	c #FE7D54",
"3 	c #FFC989",
"4 	c #FFFFD3",
"5 	c #FFF1AE",
"6 	c #FFF5B5",
"7 	c #FFFDC8",
"8 	c #FFF5C1",
"9 	c #FFCE8E",
"0 	c #FE8358",
"a 	c #FE6E4A",
"b 	c #FE855B",
"c 	c #FE8359",
"d 	c #FE9566",
"e 	c #FD6A47",
"f 	c #FE6C49",
"g 	c #FFCC8B",
"h 	c #FFFCB3",
"i 	c #FFE89D",
"j 	c #FFB87B",
"k 	c #FFF5B6",
"l 	c #FFF2BD",
"m 	c #FFCE92",
"n 	c #FEAA75",
"o 	c #FD704B",
"p 	c #FFC98A",
"q 	c #FFCA89",
"r 	c #FFB178",
"s 	c #FF855A",
"t 	c #FE6E4B",
"u 	c #FE6947",
"v 	c #FE6F4A",
"w 	c #FFDDA2",
"x 	c #FFFFE0",
"y 	c #FFF9BD",
"z 	c #FFE09F",
"A 	c #FFE4B9",
"B 	c #FFFAE4",
"C 	c #FFF5CE",
"D 	c #FFE2A4",
"E 	c #FFD99E",
"F 	c #FFCE97",
"G 	c #FFF7B2",
"H 	c #FFFBB9",
"I 	c #FFECA0",
"J 	c #FF9967",
"K 	c #FFB67C",
"L 	c #FFF8D6",
"M 	c #FFE6AE",
"N 	c #FFF1C4",
"O 	c #FFEEC1",
"P 	c #FFFCE6",
"Q 	c #FFF8D2",
"R 	c #FFC992",
"S 	c #FFDAA1",
"T 	c #FFFCE0",
"U 	c #FFFFF1",
"V 	c #FFF7BF",
"W 	c #FFE59F",
"X 	c #FE7F55",
"Y 	c #FE6846",
"Z 	c #FE7650",
"` 	c #FFAF77",
" .	c #FFC888",
"..	c #FFC082",
"+.	c #FFD899",
"@.	c #FFEAA9",
"#.	c #FFEAB6",
"$.	c #FFD692",
"%.	c #FFDC9C",
"&.	c #FFFDE0",
"*.	c #FFFFFD",
"=.	c #FFFFFC",
"-.	c #FFE8B8",
";.	c #FE7C53",
">.	c #FD6A48",
",.	c #FE885B",
"'.	c #FE8056",
").	c #FE9262",
"!.	c #FF9564",
"~.	c #FFA16E",
"{.	c #FFB87D",
"].	c #FFEEA9",
"^.	c #FFF6B4",
"/.	c #FFFCDC",
"(.	c #FFFFFA",
"_.	c #FFFEED",
":.	c #FFE2A0",
"<.	c #FE7750",
"[.	c #FE6D49",
"}.	c #FF9968",
"|.	c #FF9E6C",
"1.	c #FF9F6C",
"2.	c #FFBD82",
"3.	c #FFAE75",
"4.	c #FFB87C",
"5.	c #FFF5B1",
"6.	c #FFFAC5",
"7.	c #FFFFD0",
"8.	c #FFFFDF",
"9.	c #FFE0A0",
"0.	c #FE8E5F",
"a.	c #FD6846",
"b.	c #FF9162",
"c.	c #FFEFA4",
"d.	c #FFB57A",
"e.	c #FFA36E",
"f.	c #FFE3AF",
"g.	c #FFFFD5",
"h.	c #FFFEC6",
"i.	c #FFFEB3",
"j.	c #FFF9AD",
"k.	c #FD724C",
"l.	c #FFB67B",
"m.	c #FFA570",
"n.	c #FFD490",
"o.	c #FE7E54",
"p.	c #FE9E6A",
"q.	c #FFE7B1",
"r.	c #FFFFD7",
"s.	c #FFFECF",
"t.	c #FFEBA7",
"u.	c #FFC183",
"v.	c #FF8E60",
"w.	c #FE7A53",
"x.	c #FE8D5F",
"y.	c #FFAE76",
"z.	c #FFAD76",
"A.	c #FFC487",
"B.	c #FFA56F",
"C.	c #FE8B5D",
"D.	c #FD6845",
"E.	c #FE6F4B",
"F.	c #FF8F61",
"G.	c #FFA16D",
"H.	c #FF8D5F",
"                                        ",
"                                        ",
"          . +                           ",
"        @ + # $ % &   * =               ",
"      - ; > , ' ) ! ~ { ]               ",
"      ^ / ( _ : < [ } | 1               ",
"    @ 2 3 4 5 6 7 8 9 0 a b c d =       ",
"    e f g h i j k l m n o $ p q r s t   ",
"    u v w x y z A B C D E F G H I J .   ",
"        K L M N O P Q R S T U V W X     ",
"      Y Z `  ...+.@.#.$.%.&.*.=.-.;.    ",
"        >.,.'.).!.~.{.].^./.(._.:.<.    ",
"      [.[.}.|.1.2.3.4.5.6.7.8.9.0.      ",
"      a.b.c.+.d.0.e.f.g.h.i.j.{         ",
"        k.l.m.n.o.p.q.r.s.t.u.v.        ",
"          w.+ x.y.r z.A.B.C.f           ",
"            D.D.E.F.G.H.*               ",
"                    E.                  ",
"                                        ",
"                                        "};
