/* XPM */
static xpm_row_t const explosion7_xpm[] = {
"20 20 113 2",
"  	c None",
". 	c #FE6A48",
"+ 	c #FE714C",
"@ 	c #FF9565",
"# 	c #FF7C54",
"$ 	c #FE6D4A",
"% 	c #FE8A60",
"& 	c #FE7D55",
"* 	c #FE734E",
"= 	c #FF9967",
"- 	c #FFE8AA",
"; 	c #FFF6D1",
"> 	c #FFF0D3",
", 	c #FFB887",
"' 	c #FE9867",
") 	c #FFDFA2",
"! 	c #FFA772",
"~ 	c #FE6A47",
"{ 	c #FFBB84",
"] 	c #FFF5C8",
"^ 	c #FFFFE5",
"/ 	c #FFFFFF",
"( 	c #FFFFEF",
"_ 	c #FFEEA5",
": 	c #FFFFD6",
"< 	c #FFC591",
"[ 	c #FE6B48",
"} 	c #FF7F56",
"| 	c #FFEAAC",
"1 	c #FFFFF1",
"2 	c #FFFFFD",
"3 	c #FFFDD1",
"4 	c #FFF9C0",
"5 	c #FFA671",
"6 	c #FE7953",
"7 	c #FE7A53",
"8 	c #FF9B69",
"9 	c #FFEBB1",
"0 	c #FFFFFC",
"a 	c #FFFFFE",
"b 	c #FFF5DC",
"c 	c #FFDCA0",
"d 	c #FFCE94",
"e 	c #FFBE91",
"f 	c #FFC889",
"g 	c #FFE4A7",
"h 	c #FFA576",
"i 	c #FFB57B",
"j 	c #FFF9C8",
"k 	c #FFFFFB",
"l 	c #FFFFFA",
"m 	c #FFFCF5",
"n 	c #FFF7D6",
"o 	c #FFFEDD",
"p 	c #FFFEEA",
"q 	c #FFDDA5",
"r 	c #FE754F",
"s 	c #FFC386",
"t 	c #FFFAD3",
"u 	c #FFFFF8",
"v 	c #FFFAEE",
"w 	c #FFFFF9",
"x 	c #FFCE92",
"y 	c #FE6E49",
"z 	c #FFC090",
"A 	c #FFF8E0",
"B 	c #FFF1CA",
"C 	c #FFFDEC",
"D 	c #FFA974",
"E 	c #FE8A5D",
"F 	c #FFB97F",
"G 	c #FFE0B1",
"H 	c #FFFDEF",
"I 	c #FFFDE7",
"J 	c #FFFCF0",
"K 	c #FFC69F",
"L 	c #FFB581",
"M 	c #FFF2BF",
"N 	c #FFF3B4",
"O 	c #FFFEF1",
"P 	c #FFFFF7",
"Q 	c #FFE9C4",
"R 	c #FE6F4A",
"S 	c #FFA26E",
"T 	c #FFF7D0",
"U 	c #FFFFF6",
"V 	c #FFE6A6",
"W 	c #FFE59F",
"X 	c #FFF3BF",
"Y 	c #FFFFF4",
"Z 	c #FFF4BF",
"` 	c #FFBA87",
" .	c #FE744E",
"..	c #FFD3A0",
"+.	c #FFF3CD",
"@.	c #FFCF8D",
"#.	c #FFFDC9",
"$.	c #FFF2C0",
"%.	c #FFFACB",
"&.	c #FFFEDF",
"*.	c #FFFFEA",
"=.	c #FFB17A",
"-.	c #FF885C",
";.	c #FF8C5F",
">.	c #FFB57D",
",.	c #FF9666",
"'.	c #FFAD76",
").	c #FFD192",
"!.	c #FFCB8F",
"~.	c #FE885C",
"{.	c #FE6947",
"].	c #FF835A",
"^.	c #FE8259",
"                                        ",
"                                        ",
"                . .                     ",
"            + @ # $   % &               ",
"        * = - ; > , ' ) ! ~             ",
"        { ] ^ / / ( _ : < [             ",
"      } | 1 / / / 2 3 4 5 6 6 7         ",
"      8 9 0 / a a / b c d e f g h $     ",
"      i j k l 2 2 / m n o p 1 1 q r     ",
"      $ s t u / / / 2 v a / / w x ~     ",
"        y z A B 0 a / 0 a / / C D       ",
"          E F G H I k / / / J K         ",
"        D L M N 1 O P / / 0 Q R         ",
"        S T U V W X Y / w Z `           ",
"         ...+.@.#.$.%.&.*.=.            ",
"            -.;.>.,.'.).!.~.            ",
"                {.$ & ].^.              ",
"                                        ",
"                                        ",
"                                        "};
