/* XPM */
static xpm_row_t const explosion10_xpm[] = {
"20 20 162 2",
"  	c None",
". 	c #FE6A48",
"+ 	c #FE6947",
"@ 	c #FE986B",
"# 	c #FE6D4A",
"$ 	c #FE875B",
"% 	c #FF9F6B",
"& 	c #FEB17E",
"* 	c #FE754F",
"= 	c #FD6E4A",
"- 	c #FE6F4C",
"; 	c #FE6946",
"> 	c #FE7B53",
", 	c #FF8C5E",
"' 	c #FFDD9E",
") 	c #FFFCE4",
"! 	c #FFFFF4",
"~ 	c #FFDEAA",
"{ 	c #FFA46F",
"] 	c #FFD693",
"^ 	c #FFB97F",
"/ 	c #FD6947",
"( 	c #FE8157",
"_ 	c #FFCE91",
": 	c #FFF4CA",
"< 	c #FFFEC9",
"[ 	c #FFFFF9",
"} 	c #FFFFF8",
"| 	c #FFF1B7",
"1 	c #FFC585",
"2 	c #FFE098",
"3 	c #FFAC75",
"4 	c #FD6C49",
"5 	c #FE6A47",
"6 	c #FF8D5F",
"7 	c #FFE4A1",
"8 	c #FFFFE0",
"9 	c #FFFFE6",
"0 	c #FFFFF3",
"a 	c #FFFFE3",
"b 	c #FFE8AE",
"c 	c #FFAA73",
"d 	c #FE9366",
"e 	c #FE9767",
"f 	c #FE6E4A",
"g 	c #FE6C49",
"h 	c #FF8459",
"i 	c #FFE1A5",
"j 	c #FFFFE5",
"k 	c #FFFED6",
"l 	c #FFECA9",
"m 	c #FFFFE7",
"n 	c #FFE2AC",
"o 	c #FEA879",
"p 	c #FD724D",
"q 	c #FFBF85",
"r 	c #FFD495",
"s 	c #FFD692",
"t 	c #FFC888",
"u 	c #FF9465",
"v 	c #FE714D",
"w 	c #FE6B48",
"x 	c #FF885C",
"y 	c #FFE6B7",
"z 	c #FFFEE7",
"A 	c #FFF7CE",
"B 	c #FFF7D7",
"C 	c #FFFEF6",
"D 	c #FFFDE6",
"E 	c #FFECBA",
"F 	c #FFE3B1",
"G 	c #FFEEB8",
"H 	c #FFFFD2",
"I 	c #FFFFD4",
"J 	c #FFFBBE",
"K 	c #FFA771",
"L 	c #FE6B49",
"M 	c #FFC98B",
"N 	c #FFFCE6",
"O 	c #FFFCD3",
"P 	c #FFFAE3",
"Q 	c #FFFCE3",
"R 	c #FFFFED",
"S 	c #FFDEB3",
"T 	c #FFEFC4",
"U 	c #FFFFF5",
"V 	c #FFFFFA",
"W 	c #FFFFDB",
"X 	c #FFF2BA",
"Y 	c #FE885B",
"Z 	c #FE7D54",
"` 	c #FFCB90",
" .	c #FFE9A9",
"..	c #FFCE96",
"+.	c #FFF6C6",
"@.	c #FFFEDA",
"#.	c #FFFAD8",
"$.	c #FFF5C1",
"%.	c #FFF8C9",
"&.	c #FFFFFF",
"*.	c #FFECBD",
"=.	c #FE7A52",
"-.	c #FF9E6B",
";.	c #FE8A5D",
">.	c #FFB47C",
",.	c #FFBE85",
"'.	c #FFC591",
").	c #FFDEA6",
"!.	c #FFFCD0",
"~.	c #FFFEDD",
"{.	c #FFFFF0",
"].	c #FFE0A2",
"^.	c #FE7D55",
"/.	c #FFB67D",
"(.	c #FFC287",
"_.	c #FFC185",
":.	c #FFE2A4",
"<.	c #FFDA96",
"[.	c #FFDC9D",
"}.	c #FFFDD4",
"|.	c #FFFEF0",
"1.	c #FFFFF1",
"2.	c #FFFFE9",
"3.	c #FFE0A4",
"4.	c #FE8659",
"5.	c #FE6C48",
"6.	c #FFA26D",
"7.	c #FFFCC5",
"8.	c #FFFAC1",
"9.	c #FFE29B",
"0.	c #FFAB75",
"a.	c #FFC286",
"b.	c #FFF2CC",
"c.	c #FFFFEC",
"d.	c #FFFFD3",
"e.	c #FFFCC7",
"f.	c #FFB57A",
"g.	c #FFD896",
"h.	c #FFC789",
"i.	c #FFE6A4",
"j.	c #FFA871",
"k.	c #FFB87D",
"l.	c #FFF1C4",
"m.	c #FFFFEE",
"n.	c #FFBC81",
"o.	c #FF8C5F",
"p.	c #FE8C5F",
"q.	c #FE714C",
"r.	c #FE9866",
"s.	c #FFCE8D",
"t.	c #FFC98C",
"u.	c #FFCF90",
"v.	c #FFD799",
"w.	c #FFBA7F",
"x.	c #FE8B5D",
"y.	c #FD6846",
"z.	c #FD6845",
"A.	c #FE704B",
"B.	c #FF9665",
"C.	c #FFB078",
"D.	c #FF9A68",
"E.	c #FE724D",
"                                        ",
"                                        ",
"          . +           @               ",
"        # # $ % & *   = -               ",
"      ; > , ' ) ! ~ { ] ^ /             ",
"      ( _ : < [ } | 1 2 3 4             ",
"    5 6 7 } 8 9 0 a b c > d ( e f       ",
"    g h i j k l j m n o p q r s t u v   ",
"    w x y } z A B C D E F G H I J K L   ",
"        M N O P Q [ R S T U V W X Y     ",
"      / Z `  ...+.@.#.$.%.} &.&.*.=.    ",
"        w -.;.>.,.'.).!.~.V &.{.].      ",
"      ^.* /.(._.:.<.[.}.|.1.2.3.4.      ",
"      5.6.7.8.9.0.a.b.c.{.d.e.f.        ",
"        =.g.h.i.j.k.l.m.c.| n.o.        ",
"          p.q.r.s.t.u.v.w.x.            ",
"            y.z.A.B.C.D.E.              ",
"                    #                   ",
"                                        ",
"                                        "};
