/* XPM */
static xpm_row_t const explosion1_xpm[] = {
"20 20 17 1",
" 	c None",
".	c #FE6B49",
"+	c #FE6F4B",
"@	c #FF714D",
"#	c #FE6C4A",
"$	c #FE704D",
"%	c #FF885C",
"&	c #FF855B",
"*	c #FE7C54",
"=	c #FFBD86",
"-	c #FFA773",
";	c #FE7852",
">	c #FF9062",
",	c #FE8359",
"'	c #FE6D4A",
")	c #FE6A48",
"!	c #FF8158",
"                    ",
"                    ",
"                    ",
"                    ",
"                    ",
"         .          ",
"         .          ",
"         +@#        ",
"       $%&          ",
"       *=-          ",
"       ;>,. '       ",
"           ')       ",
"       !            ",
"                    ",
"                    ",
"                    ",
"                    ",
"                    ",
"                    ",
"                    "};
