/* XPM */
static xpm_row_t const explosion14_xpm[] = {
"20 20 68 1",
" 	c None",
".	c #FD6C48",
"+	c #FC6C48",
"@	c #FD6745",
"#	c #FC6946",
"$	c #FD6F4A",
"%	c #FC6643",
"&	c #FC6947",
"*	c #FD6947",
"=	c #FD714C",
"-	c #FC6845",
";	c #FD8158",
">	c #FD6A47",
",	c #FD724D",
"'	c #FC6D49",
")	c #FD6B48",
"!	c #FD6E49",
"~	c #FC6644",
"{	c #FE744F",
"]	c #FD6847",
"^	c #FD6744",
"/	c #FC6744",
"(	c #FC6542",
"_	c #FC6441",
":	c #FD6D48",
"<	c #FD714B",
"[	c #FD6E4A",
"}	c #FD6F4B",
"|	c #FD6846",
"1	c #FF8A5E",
"2	c #FE714C",
"3	c #FC6543",
"4	c #FD734C",
"5	c #FE8357",
"6	c #FE7850",
"7	c #FD704A",
"8	c #FD734D",
"9	c #FD724C",
"0	c #FD7851",
"a	c #FC6846",
"b	c #FC6745",
"c	c #FE6E4A",
"d	c #FE8157",
"e	c #FE7A52",
"f	c #FD754E",
"g	c #FC6945",
"h	c #FF8D5E",
"i	c #FD6845",
"j	c #FE744D",
"k	c #FF9A67",
"l	c #FE7B52",
"m	c #FD6945",
"n	c #FD6D49",
"o	c #FF9263",
"p	c #FF9362",
"q	c #FE7851",
"r	c #FE744E",
"s	c #FF9766",
"t	c #FF7B53",
"u	c #FD6946",
"v	c #FE764F",
"w	c #FE7952",
"x	c #FE6D4A",
"y	c #FE6C49",
"z	c #FD7B54",
"A	c #FE6947",
"B	c #FE6B48",
"C	c #FD744F",
"                    ",
"                    ",
"                    ",
"       .+           ",
"      @#$% &        ",
"    *=-+;% *        ",
"    >,'-)!~   {,]   ",
"    ^/(_:<.[  }>||  ",
"    >12345678^90ab  ",
"    cd>2!ef/g6h6/   ",
"      |i%b._(jkkl%  ",
"           ^mnopqi  ",
"      .    b)rstu   ",
"    i|i   $vu2cu    ",
"     |@i  ewx2y*    ",
"       i|uu>}z*     ",
"         ABC        ",
"                    ",
"                    ",
"                    "};
