/* XPM */
static xpm_row_t const explosion15_xpm[] = {
"20 20 26 1",
" 	c None",
".	c #FD6846",
"+	c #FD6845",
"@	c #FD7B54",
"#	c #FD6A47",
"$	c #FD6745",
"%	c #FB6542",
"&	c #FD6947",
"*	c #FC6845",
"=	c #FD6946",
"-	c #FC6745",
";	c #FC6644",
">	c #FD6744",
",	c #FC6744",
"'	c #FD714D",
")	c #FC6542",
"!	c #FC6543",
"~	c #FC6643",
"{	c #FB6341",
"]	c #FB6643",
"^	c #FC6442",
"/	c #FC6945",
"(	c #FB6543",
"_	c #FD6644",
":	c #FC6946",
"<	c #FD7A53",
"                    ",
"                    ",
"                    ",
"                    ",
"       .+           ",
"        @           ",
"     #   $          ",
"         %     &    ",
"    *=-  ;>,; ,'    ",
"    .& - );  !~)    ",
"             {!]!   ",
"            ^{/;;   ",
"           -!~,,(   ",
"           +$=_$    ",
"          #.:#&.    ",
"             <      ",
"                    ",
"                    ",
"                    ",
"                    "};
