/* XPM */
static xpm_row_t const explosion12_xpm[] = {
"20 20 149 2",
"  	c None",
". 	c #FD6946",
"+ 	c #FD6744",
"@ 	c #FD6B47",
"# 	c #FD895C",
"$ 	c #FE9363",
"% 	c #FC7A53",
"& 	c #FD6947",
"* 	c #FD6846",
"= 	c #FD6C47",
"- 	c #FFA26D",
"; 	c #FFE69D",
"> 	c #FFEAA5",
", 	c #FD6C49",
"' 	c #FF7E56",
") 	c #FE7650",
"! 	c #FD6D4A",
"~ 	c #FF9866",
"{ 	c #FFC284",
"] 	c #FFA46E",
"^ 	c #FFDB97",
"/ 	c #FFE5AB",
"( 	c #FF9E6A",
"_ 	c #FF7D54",
": 	c #FF7F57",
"< 	c #FE6E4B",
"[ 	c #FFE79C",
"} 	c #FFB97D",
"| 	c #FFBA7D",
"1 	c #FFD090",
"2 	c #FFD593",
"3 	c #FFA16C",
"4 	c #FE6C49",
"5 	c #FD7751",
"6 	c #FE7852",
"7 	c #FE875C",
"8 	c #FD6B48",
"9 	c #FE6947",
"0 	c #FC6745",
"a 	c #FF9C69",
"b 	c #FFC081",
"c 	c #FE875A",
"d 	c #FFC687",
"e 	c #FFCF8F",
"f 	c #FFA873",
"g 	c #FE9464",
"h 	c #FC6D48",
"i 	c #FD734D",
"j 	c #FFA16D",
"k 	c #FFAC75",
"l 	c #FF9162",
"m 	c #FE7550",
"n 	c #FD6A48",
"o 	c #FD6845",
"p 	c #FFB77C",
"q 	c #FFF5B1",
"r 	c #FFCE8B",
"s 	c #FFA971",
"t 	c #FFCA8C",
"u 	c #FFEDB4",
"v 	c #FFDC9E",
"w 	c #FFB67C",
"x 	c #FFB87D",
"y 	c #FFA26E",
"z 	c #FFC98A",
"A 	c #FFD995",
"B 	c #FFBC7F",
"C 	c #FE8359",
"D 	c #FF9464",
"E 	c #FFE5A8",
"F 	c #FFB37A",
"G 	c #FFCA90",
"H 	c #FFEBB3",
"I 	c #FFE0A4",
"J 	c #FEA26D",
"K 	c #FFB47B",
"L 	c #FFEFB1",
"M 	c #FFFACA",
"N 	c #FFD69C",
"O 	c #FE704B",
"P 	c #FD6A47",
"Q 	c #FE8458",
"R 	c #FE9B68",
"S 	c #FFA06B",
"T 	c #FFAB73",
"U 	c #FFC084",
"V 	c #FE9A66",
"W 	c #FFAB72",
"X 	c #FFEBB1",
"Y 	c #FFFFE5",
"Z 	c #FFFFD7",
"` 	c #FFD89D",
" .	c #FE744D",
"..	c #FE714C",
"+.	c #FE754E",
"@.	c #FD724C",
"#.	c #FD7850",
"$.	c #FE8055",
"%.	c #FFB579",
"&.	c #FFC685",
"*.	c #FFE5A0",
"=.	c #FFFDCF",
"-.	c #FFFDC6",
";.	c #FFC88A",
">.	c #FE7B53",
",.	c #FE7750",
"'.	c #FE8157",
").	c #FE8056",
"!.	c #FE8F60",
"~.	c #FE8358",
"{.	c #FE8B5D",
"].	c #FFC484",
"^.	c #FFCC8B",
"/.	c #FFE29B",
"(.	c #FFF6BA",
"_.	c #FFCA88",
":.	c #FE865A",
"<.	c #FC6845",
"[.	c #FE7A52",
"}.	c #FFB57B",
"|.	c #FFA36E",
"1.	c #FE875B",
"2.	c #FE8258",
"3.	c #FFC184",
"4.	c #FFE8A4",
"5.	c #FFD08D",
"6.	c #FFCD8C",
"7.	c #FFC686",
"8.	c #FD6C48",
"9.	c #FF885C",
"0.	c #FF8157",
"a.	c #FFA46F",
"b.	c #FD6745",
"c.	c #FE7D54",
"d.	c #FFCB8D",
"e.	c #FFE4A2",
"f.	c #FFD998",
"g.	c #FFC586",
"h.	c #FFA871",
"i.	c #FE6A47",
"j.	c #FE704D",
"k.	c #FF865B",
"l.	c #FF8A5D",
"m.	c #FF7F56",
"n.	c #FF9B6A",
"o.	c #FD7F55",
"p.	c #FE6B48",
"q.	c #FF7851",
"r.	c #FC6644",
"                                        ",
"                                        ",
"            .                           ",
"        . + @ # $ %   &                 ",
"        * = - ; > $ , ' )               ",
"      ! ~ { ] ^ / ( _ : <               ",
"      ! - [ } | 1 2 3 4 * 5 6 7 8       ",
"    9 0 a b 3 c d e f g h i j k l m n   ",
"      o p q r s t u v w x y z A B C *   ",
"        D E F 1 G H I J K L M N | O     ",
"        P Q a R S T U V W X Y Z `  .    ",
"        * O ..+.@.#.$.%.&.*.=.-.;.>.    ",
"        8 ,.'.).!.~.{.].^./.(._.:.      ",
"      <.[.}.|.1.[.2.3.4.5.6.7.D         ",
"        8.9.0.a.b.c.d.e.f.g.h.0.i.      ",
"          j.* >.k.l.m.n.:.o.8           ",
"                p.q.m.,.r.              ",
"                    P                   ",
"                                        ",
"                                        "};
