/* XPM */
static xpm_row_t const explosion8_xpm[] = {
"20 20 121 2",
"  	c None",
". 	c #FE6A47",
"+ 	c #FE6E4A",
"@ 	c #FE8056",
"# 	c #FFA972",
"$ 	c #FE855A",
"% 	c #FE714C",
"& 	c #FE9467",
"* 	c #FE7F57",
"= 	c #FF7F56",
"- 	c #FF9D6A",
"; 	c #FFEFAB",
"> 	c #FFFBDA",
", 	c #FFF7E3",
"' 	c #FFD5AC",
") 	c #FFB077",
"! 	c #FFD2A1",
"~ 	c #FFAE7B",
"{ 	c #FE8459",
"] 	c #FFCE93",
"^ 	c #FFF4CB",
"/ 	c #FFFFE8",
"( 	c #FFFFFF",
"_ 	c #FFFEE6",
": 	c #FFEFA4",
"< 	c #FFFFC9",
"[ 	c #FFCA96",
"} 	c #FE6C49",
"| 	c #FF9162",
"1 	c #FFEEB2",
"2 	c #FFFFF7",
"3 	c #FFFFFD",
"4 	c #FFFDD2",
"5 	c #FFEDAF",
"6 	c #FFBC81",
"7 	c #FF8A5F",
"8 	c #FE7C54",
"9 	c #FE7E55",
"0 	c #FE6F4B",
"a 	c #FFA36F",
"b 	c #FFEAB7",
"c 	c #FFF1D1",
"d 	c #FFAB73",
"e 	c #FFC788",
"f 	c #FFE9BB",
"g 	c #FFC387",
"h 	c #FFE8A4",
"i 	c #FFC085",
"j 	c #FF8A5E",
"k 	c #FFB279",
"l 	c #FFEEC4",
"m 	c #FFFFF8",
"n 	c #FFFFF9",
"o 	c #FFFDF6",
"p 	c #FFF5D6",
"q 	c #FFEFCA",
"r 	c #FFFFF1",
"s 	c #FFFFEC",
"t 	c #FFF5C8",
"u 	c #FF9968",
"v 	c #FFC88C",
"w 	c #FFFFFE",
"x 	c #FFFFFB",
"y 	c #FFF4DE",
"z 	c #FFFFF6",
"A 	c #FFEABA",
"B 	c #FE754F",
"C 	c #FE734D",
"D 	c #FFD5A6",
"E 	c #FFF8DE",
"F 	c #FFE7B8",
"G 	c #FFD19B",
"H 	c #FFAA74",
"I 	c #FFBE82",
"J 	c #FFD7A7",
"K 	c #FFFBD3",
"L 	c #FFEFCC",
"M 	c #FFFBE1",
"N 	c #FE9565",
"O 	c #FE8C60",
"P 	c #FF9F6C",
"Q 	c #FFBB86",
"R 	c #FFECBD",
"S 	c #FFF1B9",
"T 	c #FFFEDD",
"U 	c #FFFCE2",
"V 	c #FFFFEF",
"W 	c #FFFEE7",
"X 	c #FFA975",
"Y 	c #FFAF77",
"Z 	c #FFFCDD",
"` 	c #FFFDC3",
" .	c #FFE9A8",
"..	c #FFF0BB",
"+.	c #FE7D54",
"@.	c #FFE8AF",
"#.	c #FFECB7",
"$.	c #FFD18E",
"%.	c #FFF5B7",
"&.	c #FFEDBC",
"*.	c #FFFED6",
"=.	c #FFFFEE",
"-.	c #FFFEEF",
";.	c #FFCF99",
">.	c #FE8057",
",.	c #FE8F64",
"'.	c #FF865B",
").	c #FF9A69",
"!.	c #FFD398",
"~.	c #FFDB99",
"{.	c #FFF4AF",
"].	c #FFE9AA",
"^.	c #FFCC91",
"/.	c #FEA373",
"(.	c #FD6846",
"_.	c #FE6846",
":.	c #FD6946",
"<.	c #FE744E",
"[.	c #FF9263",
"}.	c #FE7C55",
"|.	c #FE6A48",
"                                        ",
"                                        ",
"                . .                     ",
"          + @ # $ %   & *               ",
"        = - ; > , ' ) ! ~ .             ",
"      { ] ^ / ( ( _ : < [ }             ",
"      | 1 2 ( 3 ( 3 4 5 6 7 8 9         ",
"    0 a b 3 ( 2 3 ( c d e f g h i j     ",
"      k l ( ( m n ( o p q r 2 s t u     ",
"        v _ w x ( w w y z ( ( w A B     ",
"        C D E F 2 3 w 2 n ( ( 3 G +     ",
"          H I J K L z 3 w ( w M N       ",
"      O P Q R S T U V ( ( w W X         ",
"        Y Z r `  .R z 3 ( r ..N         ",
"        +.@.#.$.%.&.*.=.-.;.>.          ",
"          ,.'.).!.~.{.].^./.            ",
"            (._.:.<.[.'.}.              ",
"                  |.                    ",
"                                        ",
"                                        "};
