/* XPM */
static xpm_row_t const explosion9_xpm[] = {
"20 20 139 2",
"  	c None",
". 	c #FE6947",
"+ 	c #FD6846",
"@ 	c #FE6C49",
"# 	c #FE6F4A",
"$ 	c #FE865B",
"% 	c #FFA671",
"& 	c #FE9162",
"* 	c #FD744F",
"= 	c #FE754F",
"- 	c #FF8157",
"; 	c #FF9565",
"> 	c #FFE7A5",
", 	c #FFFAE0",
"' 	c #FFFFF5",
") 	c #FFE1B5",
"! 	c #FFAF77",
"~ 	c #FFD8A1",
"{ 	c #FFB984",
"] 	c #FD6947",
"^ 	c #FE885C",
"/ 	c #FFCF95",
"( 	c #FFF4D0",
"_ 	c #FFFFE3",
": 	c #FFFFFF",
"< 	c #FFF9D6",
"[ 	c #FFDA94",
"} 	c #FFFAAF",
"| 	c #FFC88B",
"1 	c #FE6C48",
"2 	c #FE6A48",
"3 	c #FFECAE",
"4 	c #FFFFF9",
"5 	c #FFFFF4",
"6 	c #FFFFFE",
"7 	c #FFF5C3",
"8 	c #FFCF8D",
"9 	c #FE895D",
"0 	c #FF9969",
"a 	c #FE8159",
"b 	c #FE6D49",
"c 	c #FE724D",
"d 	c #FF9C6A",
"e 	c #FFE9B4",
"f 	c #FFFFFC",
"g 	c #FFFCDA",
"h 	c #FFEDC1",
"i 	c #FFA071",
"j 	c #FF8F61",
"k 	c #FFE4A9",
"l 	c #FFD094",
"m 	c #FFDE9A",
"n 	c #FFC589",
"o 	c #FF9767",
"p 	c #FE6E4B",
"q 	c #FFA46F",
"r 	c #FFE9C3",
"s 	c #FFFFFB",
"t 	c #FFFEEC",
"u 	c #FFFCE9",
"v 	c #FFFEF2",
"w 	c #FFF6C9",
"x 	c #FFE8C1",
"y 	c #FFFBD9",
"z 	c #FFFFF0",
"A 	c #FFFFE4",
"B 	c #FFFBCE",
"C 	c #FFD092",
"D 	c #FFFDE9",
"E 	c #FFFEF0",
"F 	c #FFFFF8",
"G 	c #FFFFFD",
"H 	c #FFE8CB",
"I 	c #FFF9E0",
"J 	c #FFFFF6",
"K 	c #FFF4C7",
"L 	c #FF8358",
"M 	c #FD6946",
"N 	c #FFD8A5",
"O 	c #FFF5C5",
"P 	c #FFD9A9",
"Q 	c #FFFDE6",
"R 	c #FFFFF7",
"S 	c #FFFFF3",
"T 	c #FFFEE8",
"U 	c #FFFDE7",
"V 	c #FFE7B9",
"W 	c #FE7750",
"X 	c #FE6B48",
"Y 	c #FFA773",
"Z 	c #FFA26D",
"` 	c #FFD196",
" .	c #FFDEAE",
"..	c #FFF7CE",
"+.	c #FFFEEF",
"@.	c #FFFFEE",
"#.	c #FFCA9A",
"$.	c #FE865C",
"%.	c #FFBF8A",
"&.	c #FFDDA4",
"*.	c #FFE2A4",
"=.	c #FFF3C3",
"-.	c #FFF3BD",
";.	c #FFF3C8",
">.	c #FFFFF1",
",.	c #FFFFFA",
"'.	c #FFFFED",
").	c #FFD09A",
"!.	c #FFB077",
"~.	c #FFFEDD",
"{.	c #FFF7B6",
"].	c #FFCD8E",
"^.	c #FFD29F",
"/.	c #FFFCEA",
"(.	c #FFFFE9",
"_.	c #FFF8CE",
":.	c #FFAA73",
"<.	c #FE8056",
"[.	c #FFEAAA",
"}.	c #FFE1A6",
"|.	c #FFE1A5",
"1.	c #FFDA99",
"2.	c #FFD89C",
"3.	c #FFFAD5",
"4.	c #FFFFF2",
"5.	c #FFE8B5",
"6.	c #FF9F6C",
"7.	c #FE8157",
"8.	c #FE9969",
"9.	c #FE7C54",
"0.	c #FFA36F",
"a.	c #FFE2A0",
"b.	c #FFDE9C",
"c.	c #FFEDA3",
"d.	c #FFE7A0",
"e.	c #FFC68A",
"f.	c #FE9364",
"g.	c #FF9665",
"h.	c #FE744F",
"                                        ",
"                                        ",
"            .   +                       ",
"        @ # $ % & *   = *               ",
"        - ; > , ' ) ! ~ { ]             ",
"      ^ / ( _ : : < [ } | 1             ",
"    2 ; 3 4 5 5 6 5 7 8 9 0 a $ b       ",
"    c d e f f g 4 f h i j k l m n o     ",
"    p q r : s t u s v w x y z A B % 2   ",
"        C D 5 E F G f H I 6 G J K L     ",
"      M = N O P Q R S T U G : : V W     ",
"        X Y Z ` k  ...+.5 : : @.#.      ",
"      $.^ %.&.*.=.-.;.>.G ,.'.).        ",
"      p !.~.A {.].^./.R : (._.:.        ",
"        <.[.}.|.1.2.3.5 4.5.6.7.        ",
"          8.9.0.a.b.c.d.e.f.            ",
"            ] + b & ! g.h.              ",
"                                        ",
"                                        ",
"                                        "};
