/* XPM */
static xpm_row_t const tank3_xpm[] = {
"64 31 973 2",
"  	c None",
". 	c #503621",
"+ 	c #494730",
"@ 	c #464231",
"# 	c #4E4232",
"$ 	c #454030",
"% 	c #4C4433",
"& 	c #4B3D2C",
"* 	c #492A20",
"= 	c #453A27",
"- 	c #4D4431",
"; 	c #433D2B",
"> 	c #4A4335",
", 	c #464031",
"' 	c #4B4331",
") 	c #453F2C",
"! 	c #493329",
"~ 	c #422A24",
"{ 	c #1A1918",
"] 	c #252319",
"^ 	c #3C3B24",
"/ 	c #413E27",
"( 	c #434028",
"_ 	c #48452D",
": 	c #4C492D",
"< 	c #48442C",
"[ 	c #351B17",
"} 	c #4C4A30",
"| 	c #555237",
"1 	c #47452D",
"2 	c #555332",
"3 	c #555432",
"4 	c #555333",
"5 	c #565334",
"6 	c #565333",
"7 	c #423F28",
"8 	c #545231",
"9 	c #565331",
"0 	c #565332",
"a 	c #48462B",
"b 	c #4B4A2A",
"c 	c #51502C",
"d 	c #4A472B",
"e 	c #4E4C2B",
"f 	c #4D4A2A",
"g 	c #504E2B",
"h 	c #3D3823",
"i 	c #4D4B29",
"j 	c #474526",
"k 	c #2A271D",
"l 	c #494828",
"m 	c #514F2D",
"n 	c #514E2B",
"o 	c #474527",
"p 	c #4A4929",
"q 	c #4B4A28",
"r 	c #383623",
"s 	c #3E3D26",
"t 	c #3E1E17",
"u 	c #44412A",
"v 	c #4A482C",
"w 	c #45422A",
"x 	c #454328",
"y 	c #47452A",
"z 	c #4B492D",
"A 	c #45432C",
"B 	c #373221",
"C 	c #351914",
"D 	c #232018",
"E 	c #5B5A59",
"F 	c #2B291C",
"G 	c #343220",
"H 	c #39371F",
"I 	c #3F3D23",
"J 	c #474628",
"K 	c #474626",
"L 	c #484727",
"M 	c #424124",
"N 	c #281713",
"O 	c #403F23",
"P 	c #484626",
"Q 	c #484726",
"R 	c #494727",
"S 	c #494827",
"T 	c #494726",
"U 	c #474625",
"V 	c #424023",
"W 	c #27241C",
"X 	c #454425",
"Y 	c #474525",
"Z 	c #2E2D1A",
"` 	c #2F2E1E",
" .	c #3A3920",
"..	c #381B17",
"+.	c #434124",
"@.	c #484627",
"#.	c #3A361F",
"$.	c #361B15",
"%.	c #262718",
"&.	c #2C2B1E",
"*.	c #121013",
"=.	c #2C271D",
"-.	c #424127",
";.	c #353320",
">.	c #393820",
",.	c #424123",
"'.	c #231310",
").	c #403F22",
"!.	c #464425",
"~.	c #464525",
"{.	c #414023",
"].	c #29261D",
"^.	c #444424",
"/.	c #424024",
"(.	c #2E2D1C",
"_.	c #3B3A21",
":.	c #341F18",
"<.	c #464426",
"[.	c #3B371F",
"}.	c #311813",
"|.	c #242417",
"1.	c #2A2A1C",
"2.	c #0E0D11",
"3.	c #49452D",
"4.	c #413E29",
"5.	c #3F3C26",
"6.	c #383722",
"7.	c #393821",
"8.	c #3E3D24",
"9.	c #454427",
"0.	c #464526",
"a.	c #28140F",
"b.	c #403E22",
"c.	c #444224",
"d.	c #464327",
"e.	c #424126",
"f.	c #454429",
"g.	c #504E36",
"h.	c #45432A",
"i.	c #413F22",
"j.	c #27251E",
"k.	c #434324",
"l.	c #353421",
"m.	c #37351F",
"n.	c #383720",
"o.	c #434325",
"p.	c #292819",
"q.	c #2D2C1C",
"r.	c #3C3B21",
"s.	c #301E18",
"t.	c #3B361F",
"u.	c #401A14",
"v.	c #222317",
"w.	c #27271A",
"x.	c #2D2523",
"y.	c #373521",
"z.	c #2D2C1E",
"A.	c #2D2B1D",
"B.	c #323220",
"C.	c #363527",
"D.	c #363425",
"E.	c #48462F",
"F.	c #504D34",
"G.	c #504E33",
"H.	c #2C1410",
"I.	c #32311C",
"J.	c #414029",
"K.	c #44442A",
"L.	c #34331E",
"M.	c #47442B",
"N.	c #4E482C",
"O.	c #544026",
"P.	c #383625",
"Q.	c #4D492D",
"R.	c #4F4C2E",
"S.	c #3F3D28",
"T.	c #4E4B2F",
"U.	c #4F4C30",
"V.	c #504D30",
"W.	c #4A482D",
"X.	c #4D4B2F",
"Y.	c #4E4C2F",
"Z.	c #4B482D",
"`.	c #333022",
" +	c #3B3725",
".+	c #504D2F",
"++	c #48442D",
"@+	c #44402D",
"#+	c #4B482F",
"$+	c #43412D",
"%+	c #353324",
"&+	c #3F3C27",
"*+	c #3A3723",
"=+	c #351F18",
"-+	c #4D492E",
";+	c #4D4B2E",
">+	c #4F4D31",
",+	c #504D32",
"'+	c #504D31",
")+	c #4F4D30",
"!+	c #4C492E",
"~+	c #383122",
"{+	c #411B15",
"]+	c #202115",
"^+	c #1E1E15",
"/+	c #201B1B",
"(+	c #4C4A33",
"_+	c #504E30",
":+	c #504F31",
"<+	c #514F31",
"[+	c #3C3A25",
"}+	c #35351F",
"|+	c #3F3E23",
"1+	c #3F3D22",
"2+	c #3F1C14",
"3+	c #2E2C18",
"4+	c #474429",
"5+	c #444426",
"6+	c #464626",
"7+	c #26211C",
"8+	c #444325",
"9+	c #403F24",
"0+	c #413F24",
"a+	c #413F27",
"b+	c #454325",
"c+	c #2F2C1E",
"d+	c #3F1D17",
"e+	c #434225",
"f+	c #484827",
"g+	c #424125",
"h+	c #2F261A",
"i+	c #411B16",
"j+	c #202114",
"k+	c #1D1D14",
"l+	c #29221F",
"m+	c #4C4B31",
"n+	c #35341F",
"o+	c #5A4434",
"p+	c #3A3429",
"q+	c #413E26",
"r+	c #444326",
"s+	c #464527",
"t+	c #292818",
"u+	c #444425",
"v+	c #3C3A27",
"w+	c #4A472A",
"x+	c #524F2F",
"y+	c #4D4A30",
"z+	c #535033",
"A+	c #4C4B30",
"B+	c #4E4B30",
"C+	c #4B492E",
"D+	c #524F32",
"E+	c #514E31",
"F+	c #383620",
"G+	c #441C17",
"H+	c #484826",
"I+	c #454525",
"J+	c #3A321F",
"K+	c #3F1816",
"L+	c #1F1F14",
"M+	c #4B4A31",
"N+	c #393920",
"O+	c #473B2D",
"P+	c #363126",
"Q+	c #3A3722",
"R+	c #403D26",
"S+	c #434026",
"T+	c #2D2C1A",
"U+	c #3D382F",
"V+	c #2E2B28",
"W+	c #3B3729",
"X+	c #625F3D",
"Y+	c #423F26",
"Z+	c #413E23",
"`+	c #3F3D24",
" @	c #464428",
".@	c #4E4D2B",
"+@	c #444126",
"@@	c #454326",
"#@	c #4B492C",
"$@	c #4D4A2E",
"%@	c #211F1C",
"&@	c #484625",
"*@	c #35351E",
"=@	c #421E17",
"-@	c #41371F",
";@	c #511D19",
">@	c #1D1C13",
",@	c #494630",
"'@	c #4B482E",
")@	c #4D4B31",
"!@	c #363522",
"~@	c #39381F",
"{@	c #2E261F",
"]@	c #28211C",
"^@	c #3C3922",
"/@	c #464328",
"(@	c #252417",
"_@	c #4D4628",
":@	c #312E1F",
"<@	c #221F1F",
"[@	c #3C392B",
"}@	c #63603D",
"|@	c #464225",
"1@	c #454227",
"2@	c #4E4C2E",
"3@	c #49472B",
"4@	c #464326",
"5@	c #434125",
"6@	c #4A4829",
"7@	c #46422B",
"8@	c #3B3828",
"9@	c #3E3B2C",
"0@	c #656045",
"a@	c #5D583A",
"b@	c #2E2C1C",
"c@	c #431D17",
"d@	c #444227",
"e@	c #655843",
"f@	c #503628",
"g@	c #2A251D",
"h@	c #2C2720",
"i@	c #36332C",
"j@	c #6C6244",
"k@	c #524A38",
"l@	c #474325",
"m@	c #434024",
"n@	c #434126",
"o@	c #34321F",
"p@	c #444324",
"q@	c #434123",
"r@	c #391C17",
"s@	c #2B1715",
"t@	c #3D3B27",
"u@	c #3E3C25",
"v@	c #3F3E25",
"w@	c #231E17",
"x@	c #725E34",
"y@	c #181414",
"z@	c #373326",
"A@	c #64623F",
"B@	c #685F42",
"C@	c #635B3E",
"D@	c #5D583B",
"E@	c #5D5A43",
"F@	c #6F6B4E",
"G@	c #706B4E",
"H@	c #6B654A",
"I@	c #5E5B44",
"J@	c #636043",
"K@	c #666344",
"L@	c #6B6845",
"M@	c #686341",
"N@	c #5D5B3C",
"O@	c #4D4C2E",
"P@	c #4C4A2B",
"Q@	c #414124",
"R@	c #524D37",
"S@	c #615C40",
"T@	c #625C40",
"U@	c #635D43",
"V@	c #635D41",
"W@	c #5E583D",
"X@	c #615A3E",
"Y@	c #615A3F",
"Z@	c #645E43",
"`@	c #665F44",
" #	c #655D43",
".#	c #655E42",
"+#	c #655E44",
"@#	c #605C43",
"##	c #322F27",
"$#	c #5F5136",
"%#	c #5B5738",
"&#	c #5F5D3C",
"*#	c #5E5B39",
"=#	c #373527",
"-#	c #312E22",
";#	c #302E21",
">#	c #302D22",
",#	c #231F18",
"'#	c #2C1B18",
")#	c #2D281B",
"!#	c #3B3922",
"~#	c #3B3921",
"{#	c #2F2D1D",
"]#	c #38371F",
"^#	c #414022",
"/#	c #802714",
"(#	c #641E13",
"_#	c #45432B",
":#	c #464427",
"<#	c #444327",
"[#	c #322F1D",
"}#	c #312B1C",
"|#	c #2F2925",
"1#	c #524E36",
"2#	c #5B5035",
"3#	c #6D6541",
"4#	c #5E5A3F",
"5#	c #373427",
"6#	c #56542F",
"7#	c #676437",
"8#	c #676436",
"9#	c #666436",
"0#	c #5A5932",
"a#	c #636235",
"b#	c #646234",
"c#	c #656235",
"d#	c #54542E",
"e#	c #474727",
"f#	c #222218",
"g#	c #1C1B14",
"h#	c #4C4B2B",
"i#	c #5C5B32",
"j#	c #616035",
"k#	c #616034",
"l#	c #606035",
"m#	c #615F34",
"n#	c #5F5E33",
"o#	c #51512D",
"p#	c #5A5930",
"q#	c #5D5C32",
"r#	c #5E5D33",
"s#	c #5E5E33",
"t#	c #595931",
"u#	c #51522C",
"v#	c #191813",
"w#	c #242B1D",
"x#	c #2F311D",
"y#	c #31321E",
"z#	c #28261A",
"A#	c #1D1C15",
"B#	c #22211A",
"C#	c #25271A",
"D#	c #481D16",
"E#	c #3D291F",
"F#	c #3C301E",
"G#	c #363520",
"H#	c #413F2B",
"I#	c #4D4930",
"J#	c #504C32",
"K#	c #46442A",
"L#	c #312821",
"M#	c #241D18",
"N#	c #46442B",
"O#	c #36351D",
"P#	c #2D2B1B",
"Q#	c #3F3833",
"R#	c #514D38",
"S#	c #3D3C23",
"T#	c #52482F",
"U#	c #514B2D",
"V#	c #493524",
"W#	c #4D2714",
"X#	c #1C1B15",
"Y#	c #222017",
"Z#	c #232117",
"`#	c #242116",
" $	c #221F16",
".$	c #211F16",
"+$	c #1D1B15",
"@$	c #1F1E16",
"#$	c #191812",
"$$	c #1F1E15",
"%$	c #242317",
"&$	c #252317",
"*$	c #252318",
"=$	c #201E16",
"-$	c #191714",
";$	c #1F1D15",
">$	c #202015",
",$	c #1E1F14",
"'$	c #1E1E14",
")$	c #1E1D15",
"!$	c #1F1E18",
"~$	c #1C1D15",
"{$	c #09090E",
"]$	c #1F201F",
"^$	c #31321D",
"/$	c #36341F",
"($	c #383821",
"_$	c #444427",
":$	c #464627",
"<$	c #42372D",
"[$	c #2D231C",
"}$	c #3B3B26",
"|$	c #434226",
"1$	c #424226",
"2$	c #36351E",
"3$	c #2D2C1B",
"4$	c #403636",
"5$	c #514D36",
"6$	c #444228",
"7$	c #4C4131",
"8$	c #3A3324",
"9$	c #30251A",
"0$	c #452116",
"a$	c #412418",
"b$	c #1B1313",
"c$	c #221C17",
"d$	c #201B17",
"e$	c #1F1A17",
"f$	c #1B1714",
"g$	c #211C16",
"h$	c #262018",
"i$	c #201A14",
"j$	c #211B15",
"k$	c #241C18",
"l$	c #211918",
"m$	c #1E1717",
"n$	c #2B201A",
"o$	c #2B221C",
"p$	c #322A1E",
"q$	c #30281C",
"r$	c #322A1D",
"s$	c #2A2419",
"t$	c #271F18",
"u$	c #35301E",
"v$	c #38321F",
"w$	c #383220",
"x$	c #2C2319",
"y$	c #2F1B14",
"z$	c #362118",
"A$	c #2D1A15",
"B$	c #241D19",
"C$	c #1B1815",
"D$	c #232219",
"E$	c #222019",
"F$	c #242419",
"G$	c #401B14",
"H$	c #08080D",
"I$	c #363327",
"J$	c #32321E",
"K$	c #353520",
"L$	c #33331F",
"M$	c #3E3D23",
"N$	c #33321E",
"O$	c #38361E",
"P$	c #582821",
"Q$	c #3B1815",
"R$	c #45442C",
"S$	c #3E3E23",
"T$	c #36361E",
"U$	c #453A38",
"V$	c #49482D",
"W$	c #383128",
"X$	c #42392D",
"Y$	c #3B3328",
"Z$	c #2F2821",
"`$	c #1E1A19",
" %	c #46412C",
".%	c #211F18",
"+%	c #282717",
"@%	c #2B2A18",
"#%	c #2C2A18",
"$%	c #2E2C1A",
"%%	c #3D3B20",
"&%	c #35321F",
"*%	c #251E1B",
"=%	c #140F13",
"-%	c #0F0D11",
";%	c #181416",
">%	c #2A251C",
",%	c #4A4228",
"'%	c #322E1C",
")%	c #212015",
"!%	c #222115",
"~%	c #171610",
"{%	c #3D2519",
"]%	c #474627",
"^%	c #1A1414",
"/%	c #39090C",
"(%	c #67120F",
"_%	c #5E1610",
":%	c #2D2321",
"<%	c #2C221F",
"[%	c #281F1C",
"}%	c #1E1716",
"|%	c #291E1B",
"1%	c #251D1B",
"2%	c #312823",
"3%	c #363524",
"4%	c #353422",
"5%	c #4B492F",
"6%	c #4C4A2F",
"7%	c #3A3824",
"8%	c #1E1D14",
"9%	c #211F14",
"0%	c #232116",
"a%	c #3E3D22",
"b%	c #68291B",
"c%	c #351814",
"d%	c #47462C",
"e%	c #474726",
"f%	c #413636",
"g%	c #4E4D2F",
"h%	c #474725",
"i%	c #484725",
"j%	c #434223",
"k%	c #373420",
"l%	c #363121",
"m%	c #2D2A1C",
"n%	c #32301C",
"o%	c #3D3D21",
"p%	c #3E3A22",
"q%	c #282718",
"r%	c #494826",
"s%	c #1D1917",
"t%	c #130F11",
"u%	c #141013",
"v%	c #191416",
"w%	c #433E25",
"x%	c #3D3B23",
"y%	c #282818",
"z%	c #232215",
"A%	c #302219",
"B%	c #1C1517",
"C%	c #332824",
"D%	c #291F1C",
"E%	c #1B1515",
"F%	c #1F211B",
"G%	c #31331E",
"H%	c #373621",
"I%	c #1C1A12",
"J%	c #232115",
"K%	c #251F1B",
"L%	c #1C1815",
"M%	c #43432A",
"N%	c #454526",
"O%	c #2D2C19",
"P%	c #403637",
"Q%	c #383523",
"R%	c #454327",
"S%	c #35341E",
"T%	c #39371E",
"U%	c #3A3821",
"V%	c #1B1716",
"W%	c #120D12",
"X%	c #151014",
"Y%	c #2D291E",
"Z%	c #444127",
"`%	c #424026",
" &	c #414025",
".&	c #2C2B1A",
"+&	c #272518",
"@&	c #131012",
"#&	c #3F2920",
"$&	c #31311D",
"%&	c #373620",
"&&	c #262517",
"*&	c #662517",
"=&	c #401712",
"-&	c #42422C",
";&	c #464625",
">&	c #343021",
",&	c #53462B",
"'&	c #1B1717",
")&	c #1B1518",
"!&	c #3D3A22",
"~&	c #3E3D25",
"{&	c #434029",
"]&	c #454428",
"^&	c #28241A",
"/&	c #181517",
"(&	c #191617",
"_&	c #1D181A",
":&	c #2E2A1E",
"<&	c #454426",
"[&	c #302F1C",
"}&	c #2E2A1A",
"|&	c #161213",
"1&	c #443120",
"2&	c #403E2A",
"3&	c #4A4830",
"4&	c #373624",
"5&	c #632417",
"6&	c #3A1812",
"7&	c #403E2D",
"8&	c #434227",
"9&	c #34281E",
"0&	c #786342",
"a&	c #453928",
"b&	c #191518",
"c&	c #272219",
"d&	c #3D3A23",
"e&	c #3E3C23",
"f&	c #434224",
"g&	c #26241A",
"h&	c #28241B",
"i&	c #302E1F",
"j&	c #2A281B",
"k&	c #404023",
"l&	c #454424",
"m&	c #28251B",
"n&	c #1A1618",
"o&	c #1C181A",
"p&	c #3D3C21",
"q&	c #444226",
"r&	c #252418",
"s&	c #2C281A",
"t&	c #141011",
"u&	c #472719",
"v&	c #414027",
"w&	c #484628",
"x&	c #383621",
"y&	c #1F1819",
"z&	c #181215",
"A&	c #3D3B2D",
"B&	c #1B1614",
"C&	c #423426",
"D&	c #3D3224",
"E&	c #2E2827",
"F&	c #221D1E",
"G&	c #302D1E",
"H&	c #353220",
"I&	c #2D2C1D",
"J&	c #201D16",
"K&	c #262219",
"L&	c #242118",
"M&	c #1C1A16",
"N&	c #2D2B1C",
"O&	c #302E1E",
"P&	c #201B19",
"Q&	c #1E181A",
"R&	c #201A1C",
"S&	c #181316",
"T&	c #181813",
"U&	c #2D291B",
"V&	c #161212",
"W&	c #46271A",
"X&	c #353420",
"Y&	c #221413",
"Z&	c #403F27",
"`&	c #2C2C1A",
" *	c #383525",
".*	c #29251E",
"+*	c #171317",
"@*	c #1E1A1B",
"#*	c #1D191B",
"$*	c #1A1619",
"%*	c #1B1719",
"&*	c #1E191B",
"**	c #1B1618",
"=*	c #1B1619",
"-*	c #1F1A1D",
";*	c #1E191C",
">*	c #1C161A",
",*	c #171217",
"'*	c #1B161A",
")*	c #413F23",
"!*	c #1F1F16",
"~*	c #2D291C",
"{*	c #464524",
"]*	c #1E1917",
"^*	c #28231D",
"/*	c #332B1F",
"(*	c #301B17",
"_*	c #43422B",
":*	c #504D33",
"<*	c #524F35",
"[*	c #514F34",
"}*	c #2B1613",
"|*	c #3E3C22",
"1*	c #3C3B22",
"2*	c #474426",
"3*	c #464325",
"4*	c #181713",
"5*	c #262717",
"6*	c #202014",
"7*	c #2A241A",
"8*	c #25221B",
"9*	c #2E2C1F",
"0*	c #393420",
"a*	c #422017",
"b*	c #28271A",
"c*	c #4B4A2D",
"d*	c #36351F",
"e*	c #373625",
"f*	c #46432B",
"g*	c #47442D",
"h*	c #45412C",
"i*	c #433F29",
"j*	c #261310",
"k*	c #3F3D29",
"l*	c #4A4831",
"m*	c #49482F",
"n*	c #46432E",
"o*	c #48452F",
"p*	c #423E29",
"q*	c #403C29",
"r*	c #433F2B",
"s*	c #45432D",
"t*	c #47442E",
"u*	c #48452E",
"v*	c #423F2B",
"w*	c #3D3B29",
"x*	c #47452F",
"y*	c #47452E",
"z*	c #313020",
"A*	c #45442D",
"B*	c #43422C",
"C*	c #413F28",
"D*	c #43422A",
"E*	c #43412F",
"F*	c #3F3D2B",
"G*	c #333123",
"H*	c #353426",
"I*	c #323022",
"J*	c #331D16",
"K*	c #47432F",
"L*	c #48442F",
"M*	c #49452F",
"N*	c #403C2D",
"O*	c #3D382B",
"P*	c #3E3A2C",
"Q*	c #353225",
"R*	c #2E1814",
"S*	c #191713",
"T*	c #393921",
"U*	c #271310",
"V*	c #3F3E24",
"W*	c #4A4827",
"X*	c #23221A",
"Y*	c #301F17",
"Z*	c #3A3720",
"`*	c #301813",
" =	c #212116",
".=	c #211F1A",
"+=	c #2B2A1A",
"@=	c #26261A",
"#=	c #2C1611",
"$=	c #24221A",
"%=	c #3C3C23",
"&=	c #302319",
"*=	c #3C3820",
"==	c #391C14",
"-=	c #242318",
";=	c #322A26",
">=	c #4A3D2E",
",=	c #443B2C",
"'=	c #413C2C",
")=	c #3F3B2A",
"!=	c #363324",
"~=	c #251410",
"{=	c #444225",
"]=	c #211F17",
"^=	c #3D3C22",
"/=	c #312318",
"(=	c #3C371F",
"_=	c #3B1B14",
":=	c #222117",
"<=	c #302826",
"[=	c #25231A",
"}=	c #3B3924",
"|=	c #44422A",
"1=	c #524D32",
"2=	c #524E33",
"3=	c #231210",
"4=	c #2F2E1D",
"5=	c #323121",
"6=	c #363523",
"7=	c #343222",
"8=	c #434329",
"9=	c #242219",
"0=	c #3A3A24",
"a=	c #33321F",
"b=	c #332018",
"c=	c #4E4C31",
"d=	c #504E32",
"e=	c #4F4D32",
"f=	c #4E4D32",
"g=	c #4A492E",
"h=	c #49482C",
"i=	c #46452A",
"j=	c #363320",
"k=	c #2D1813",
"l=	c #232217",
"m=	c #161216",
"n=	c #302A1F",
"o=	c #39391F",
"p=	c #26140F",
"q=	c #31301C",
"r=	c #1A1814",
"s=	c #332F22",
"t=	c #2C2A1B",
"u=	c #29281A",
"v=	c #272517",
"w=	c #242218",
"x=	c #2C2B1B",
"y=	c #2D2B1A",
"z=	c #2A2919",
"A=	c #2A281A",
"B=	c #201E17",
"C=	c #2B291B",
"D=	c #2B2A1B",
"E=	c #2C2B1C",
"F=	c #2B291A",
"G=	c #413D26",
"H=	c #3A1F17",
"I=	c #414024",
"J=	c #371B14",
"K=	c #222216",
"L=	c #352F2B",
"M=	c #343221",
"N=	c #383820",
"O=	c #3F3F23",
"P=	c #27130F",
"Q=	c #1E1D12",
"R=	c #212014",
"S=	c #232214",
"T=	c #1F1D13",
"U=	c #222014",
"V=	c #2A261F",
"W=	c #3A342A",
"X=	c #1F1C13",
"Y=	c #232114",
"Z=	c #242115",
"`=	c #242215",
" -	c #201F16",
".-	c #412118",
"+-	c #34331F",
"@-	c #302F1D",
"#-	c #301812",
"$-	c #201F17",
"%-	c #2B2A1E",
"&-	c #36361F",
"*-	c #37361F",
"=-	c #271511",
"--	c #201C14",
";-	c #241D15",
">-	c #251F16",
",-	c #211D15",
"'-	c #1D1B14",
")-	c #201D15",
"!-	c #221D15",
"~-	c #201C15",
"{-	c #1F1A14",
"]-	c #221C16",
"^-	c #211E15",
"/-	c #1F1D14",
"(-	c #2B241D",
"_-	c #3C332B",
":-	c #221B15",
"<-	c #201D14",
"[-	c #231E14",
"}-	c #221D14",
"|-	c #231D15",
"1-	c #211A14",
"2-	c #201B14",
"3-	c #331A14",
"4-	c #423F23",
"5-	c #3C3C21",
"6-	c #393822",
"7-	c #3A371E",
"8-	c #341A13",
"9-	c #2E1111",
"0-	c #241412",
"a-	c #261513",
"b-	c #261512",
"c-	c #281510",
"d-	c #231511",
"e-	c #1C0E11",
"f-	c #2E1411",
"g-	c #281815",
"h-	c #261614",
"i-	c #201413",
"j-	c #2A1815",
"k-	c #271714",
"l-	c #2C1813",
"m-	c #251511",
"n-	c #341311",
"        . + @ # $ % &                                                                       * = - ; > , ' ) ! ~                 ",
"      { ] ^ / ( _ : < [ } | 1 2 3 2 4 5 6 7 8 9 0 a b c d e f g h i j k l m n g o p q   r s t u v w x y z A B C D               ",
"    E F G H I J K L M N O P j Q R S S S R K Q T R j j P K U K P j P V W X Q Q Q Q K Y Z `  ...+.P Q L L L @.#.$.%.&.            ",
"  *.=.-.;.>.I j P P ,.'.).P Q Q Q R R L Q Q Q Q Q Q Q Q Y !.~.Y ~.~.{.].^.K K K P K /.Z (._.:.<.Q Q Q Q Q K [.}.|.1.2.          ",
"  3.4.5.6.7.8.9.0.K V a.b.j K P Q P <.P c.j j d.P P P P e.y f.f.g.h.i.j.k.~.l.m.n.o.O p.q.r.s.<.Q Q Q Q P K t.u.v.w.x.          ",
"  y.z.A.B.C.D.E.F.G.u H.I.4.J.K.L.M.N.O.P.Q.R.S.T.U.U.V.W.X.Y.Y.Y.Z.a `. +.+++@+@+#+$+%+&+*+=+-+;+>+,+'+)+!+~+{+]+^+/+          ",
"(+_+:+<+[+}+|+Q Q Q 1+2+3+4+5+6+7+r.P Y K P Y 8+@.L L R R R R R R R @.9+0+P Q !.X Q 0+a+b+c+d+e+K L L f+Q g+h+i+j+k+l+          ",
"m+0.K K n+>.+.<.Q Q ,.o+p+q+r+s+t+u+K 0+4.*+v+w+x+y+z+A+B+C+D+E+: F+/.P P P P Q Q Q Q Q K F+G+!.Q L f+H+Q I+J+K+L+              ",
"M+0.K K n+N+Y ~.Q Q ,.O+P+Q+R+S+T+6+g+U+V+W+X+Y+Z+`+I  @.@+@@@@@#@$@%@V &@c.c.P Q Q Q Q Q *@=@~.Q Q Q Q Q K -@;@>@              ",
",@'@)@C+!@~@~.U U Q ,.{@]@^@q+/@(@_@:@<@[@}@j |@1@2@3@4@5@/.h.@.j 6@7@8@9@0@a@X K K K K 0.b@c@X 0.K K K K d@e@f@g@h@i@j@k@      ",
"l@m@o n@o@>.p@).q@j {.r@s@t@u@v@w@x@y@z@A@0.d B@C@D@E@F@G@H@I@J@K@L@M@N@O@P@Q@R@S@T@U@V@W@X@Y@Z@`@ #.#+#@###$#%#&#*#=#-#;#>#,#  ",
"'#)#!#~#{#]#X 8+0.K ^#/#(#_#:#<#[#}#|#1#Q ~.2#3#4#5#6#7#8#9#0#a#b#c#c#d#e#f#g#h#i#j#k#l#m#n#o#p#q#r#s#t#u#v#w#x#y#M z#A#B#C#D#  ",
"E#F#j K G#H#I#J#K#~.^#L#M#N#s+<#O#P#Q#R#X S#T#U#V#W#X#Y#Y#Y#Y#Z#Z#`# $.$+$@$#$$$%$(@(@&$&$&$*$Z#Z#Z#Z#Z#=$-$;$>$,$'$v#)$!$~${$  ",
"]$^$0.K /$($_$:$_.M ,.<$[$}$|$1$2$3$4$5$e.6$7$8$9$0$a$b$c$d$e$f$g$h$i$j$k$l$m$n$o$p$q$r$r$s$t$u$v$v$v$w$x$y$z$A$B$B$C$D$E$F$G$H$",
"I$J$0.K K$L$M$M$N$O${.P$Q$R$6@S$T$3$U$V$Q ^.W$X$Y$Z$`$ $ %.%+%@%#%$%%%&%*%=%-%;%>%,%'%)%!%~%{%Y T L L ]%^%/%(%_%:%<%[%}%|%1%2%  ",
"3%4%5%6%7%8%9%g#0%a%{.b%c%d%e%I+T$T+f%g%h%i%j%k%l%m%n%o%p%q%U T r%Q Q ~#s%t%u%v%=.w%x%K$y%z%A%P Q Q Q K B%            C%D%E%    ",
"F%G%]%]%H%k+I%g#J%M {.K%L%M%N%N%2$O%P%Q%I+U &@R%Q +.X U S%T%Q Q Q Q Q U%V%W%X%v%Y%Z%`% &8+.&+&U Q Q P K @&                      ",
"#&$&0.0.%&&&M |+,.e%M *&=&-&;&X >&,&'&)&!&8+U i%Q Q ~.~&{&]&0.!.Q Q M ^&;%/&(&_&:&`%1@<.<&[&}&U 0.+.+.5@|&                      ",
"1&2&3&A 4&q%Q Q Q Q M 5&6&7&;&8&9&0&a&b&c&d&e&K i%f&X g&h&i&j&k&l&a%m&n&o&S%p&p&{.!.X <&q&r&s&;&Q Q L L t&                      ",
"u&v&w&N%x&2$K Q Q L M y&z&A&6+e%B&C&D&E&F&d$G&G H&I&q.J&K&L&M&N&O&P&Q&R&S&i.T Q Q Q L K q.T&U&;&Q Q L ]%V&                      ",
"W&8&0.0.X&N+K Q Q Q f&Y&^@Z&6+Q `&a%b+ *.*+*@*#*o&$*%*&*&***=*-*;*>*,*'*$*)*Q i%i%Q K (.!*,$~*{*Q Q e%]%]*^*/*(*                ",
"_*:*<*[*v+>.K P P <.c.}*|*e&_._.n.1*j Y !.!.2*I !.!.!.3*4@3*X !.!.!.!.<.X U P U j%P a%4*5*6*7*~.P Q U 8*g@9*0*a*b*              ",
"c*K K K d*e*S.f*g*h*i*j*k*l*H#m*n*$+o*t@p*q*r*s*H#t*u*o*v*w*x*y*x*z*A*B*C*4.D*E*F*y*v+G*H*I*J*K*K*L*M*N*O*P*Q*R*S*              ",
"O@]%]%0.}+T*|+K P Q f&U*,.T j T R R T q&P P +.r+V*L R S <.S S W*T X*:$e+X T K ~.Q T <&]%v@1*Y*P T T R S S S Z*`* =.={$          ",
"  b@A.+=@=N+|+K K K f&#=V P P Q Q Q Q P P P f&8+|+Q R R R R S T Q $=6+f&X Q Q Q Q Q K K 9+%=&=K Q Q Q Q L L *===-=g&;=          ",
">=,='=)=!=N+|+0.K K q@~={.K K K K K ~.8+8+X f&{=|+Q Q Q Q Q Q Q Q ]=0.,.p@Q Q Q Q K K K 9+^=/=~.K ~.K P ]%L (=_=:=]=<=          ",
"[=+.j K m.}=|=J#1=2='@3=V 4=5=6=7=X 8=#+W.h.M u@S#K P P P K ]%K ]%9=X V f&]%]%]%K 0=B.a=G#^=b=c=d=e=f=g=h=i=j=k=)%l=m=          ",
"  n=M j %&o=O K K Q +.p=q=r=A.]=s=3$+=t=P#u=v=w=z#P#P#x=y=P#+=z=A=B=x=C=u=D=E=+=F=k%R+G=A=%$H=j K K {=^=S#I=Z*J=K=&$L=          ",
"      0+M=N=O=r+9+K ,.P=)%9%Q=R=R=z%z%z%z%S=S=>@T=9%U=z%z%J%J%V=W=X=J%U=Y=Y=J%Z=`=`=`=J%8% -.-0.K M +-@-%&@@[.#-K=$-            ",
"        %-&-*-|+{.]%Z+=---;->-,-'-;$)-!-;$,-~-{-]-i$)-^-;$/-^-(-_-:-)-~-~-,-!-<-<-[-}-|-1-2-3-)*4-5-(.6-H%g+7-8-J&              ",
"        9-0-a-b-c-=-d-                                                                      e-f-g-h-i-j-k-l-m-n-                "};
