/* XPM */
static xpm_row_t const virus50_3_xpm[] = {
"50 50 51 1",
" 	c None",
".	c #1F5F1F",
"+	c #206120",
"@	c #216221",
"#	c #216121",
"$	c #205E20",
"%	c #1F5E1F",
"&	c #206220",
"*	c #205F20",
"=	c #1F5D1F",
"-	c #206020",
";	c #1F601F",
">	c #216321",
",	c #236423",
"'	c #1F5C1F",
")	c #1E5B1E",
"!	c #1E5A1E",
"~	c #1D5A1D",
"{	c #1E5C1E",
"]	c #216021",
"^	c #1F5B1F",
"/	c #216421",
"(	c #1D591D",
"_	c #236523",
":	c #246724",
"<	c #226422",
"[	c #226322",
"}	c #1E591E",
"|	c #1D581D",
"1	c #1D5B1D",
"2	c #1D561D",
"3	c #1E581E",
"4	c #1D571D",
"5	c #226222",
"6	c #1D551D",
"7	c #226522",
"8	c #236623",
"9	c #1C551C",
"0	c #1C541C",
"a	c #1E571E",
"b	c #1C561C",
"c	c #1C531C",
"d	c #1E5D1E",
"e	c #205D20",
"f	c #1F5A1F",
"g	c #1D541D",
"h	c #236823",
"i	c #236323",
"j	c #246924",
"k	c #246524",
"l	c #226722",
"                           .+@                    ",
"                          #$%.&                   ",
"                           *=%                    ",
"                           -%+                    ",
"                           -;>                    ",
"                , $'       *%                     ",
"                $')=      -%*@                    ",
"                !~{-    +*')'*    ==%*            ",
"                  =$$]*#-'))!!    {{''            ",
"                 .{=)==========*#-%=%=            ",
"                **'=')'========={)'%%             ",
"  =           ===^)==)!'======')!^{)~           - ",
" *%=+/      -%=='))==)!^==''=)()'={)=#_        *#:",
" ..%$-><   --%=='))'!~)=='!~{'~)='))'=+[      [$%@",
" &/@.%***=)={!^'='))!^==='}|)={1''))!}=* +>&+#*$=*",
"      *%=)')|23'===='{===='{===)'={)}4!'){%%$#[5  ",
"       =))'!26}=====))!()===========!|}')!'$+78   ",
"       *''=}4}'==='='}29('=========='))==))%      ",
"        {=='^'===)|!^402!======))^'='!)==={       ",
"        %=======^a0|^34!'===='34b4!{^}!====       ",
"       >%'======!22!='{'=====)20c02}')''==$#      ",
"       @!!'====='!)==========!9ccc0|{='}!'%+      ",
" %d+   =)')'===========))))==^40ccc2!==')'=.      ",
" %){==%%==))='')!!)'='!!^^!{='(9ccc9}'=))!'.      ",
" *'{=%e'==))=)3609b|'')'='))''}0ccc9}=')')!)   !^ ",
" .=d   ){'){=)40cc0b))!'=='!)'}9ccc9}'))====--='$ ",
"       %)!^'='|0cccbf'{)'=')'=)20cc2!'){='==%=^)= ",
"       %='{!^=)4ccc9!==)!)){===!|62}'=)!)~){  ={% ",
"       &%==''')|gcc9!==''''====='^^'===)!^=     & ",
"       +===)^!a2290b)==================='=%       ",
"        '='}!!a2(}|!==================='}^*       ",
"       %)'=)''!}'======'!!'============'!))       ",
"       =!)=========='!^!22}'^()=====')^=='$       ",
"    %%%=^{========='|92|42}''!'===='!4}''!'       ",
" ##*=%.-={===={)))^'!6064()=========)!'=')=*7h    ",
"7]%=== 8   ===)))^))'}299|{==')''='{{===)=%%*--   ",
"8[*==      --%{)'==')')(|})))!!^''!4}=*]   .%%.%* ",
" 7<@        @*))'==))'='={))''=))')f$@@       i*% ",
"  j           {{='))'!}!'')))==)'=$@8         k$= ",
"             #*%%{'='(44!''')'=)=-#@              ",
"             '=%-++=={))'===^)={-<                ",
"           -='^{    =)))=%-+={==                  ",
"            **$=    =''===    ={{.                ",
"             8>-     %=-@     $='*                ",
"                     +.[      %--                 ",
"                     *-l       @                  ",
"                     %%                           ",
"                    ]%%>                          ",
"                    $==@                          ",
"                     +                            "};
