/* XPM */
static xpm_row_t const virus40_xpm[] = {
"40 40 204 2",
"  	c None",
". 	c #BE2523",
"+ 	c #BE2121",
"@ 	c #BF2021",
"# 	c #C21818",
"$ 	c #C11D1D",
"% 	c #C31818",
"& 	c #BE1F1F",
"* 	c #B22222",
"= 	c #C11817",
"- 	c #C02322",
"; 	c #C02020",
"> 	c #B61919",
", 	c #B71A19",
"' 	c #B12727",
") 	c #C1191A",
"! 	c #BC2121",
"~ 	c #BF2322",
"{ 	c #C11918",
"] 	c #AE2425",
"^ 	c #BF2424",
"/ 	c #C02323",
"( 	c #BD2222",
"_ 	c #C21918",
": 	c #BF1D1C",
"< 	c #BE2322",
"[ 	c #BB1F1F",
"} 	c #B51A19",
"| 	c #C01918",
"1 	c #C01817",
"2 	c #B61717",
"3 	c #BE1818",
"4 	c #C31817",
"5 	c #C21819",
"6 	c #B31D1F",
"7 	c #C11A1A",
"8 	c #BF1C1D",
"9 	c #BD3232",
"0 	c #B22020",
"a 	c #B91919",
"b 	c #C21817",
"c 	c #C11818",
"d 	c #C01818",
"e 	c #B41717",
"f 	c #BC1818",
"g 	c #B81919",
"h 	c #BD1918",
"i 	c #BB1A19",
"j 	c #C11919",
"k 	c #C11F20",
"l 	c #B51919",
"m 	c #BD2626",
"n 	c #BC1718",
"o 	c #BA1817",
"p 	c #AF1617",
"q 	c #BB1918",
"r 	c #B71919",
"s 	c #C21917",
"t 	c #B31919",
"u 	c #BF1918",
"v 	c #BF2828",
"w 	c #B41E1E",
"x 	c #BD1818",
"y 	c #BE1918",
"z 	c #BE1F20",
"A 	c #B61A19",
"B 	c #B71819",
"C 	c #BC1919",
"D 	c #B81817",
"E 	c #B31716",
"F 	c #B21716",
"G 	c #B51918",
"H 	c #B31819",
"I 	c #BA1919",
"J 	c #BC1817",
"K 	c #B21F20",
"L 	c #C01F1F",
"M 	c #BB1919",
"N 	c #B71717",
"O 	c #AD1617",
"P 	c #C01B1B",
"Q 	c #BC2120",
"R 	c #BF2525",
"S 	c #BB1818",
"T 	c #B11718",
"U 	c #B81717",
"V 	c #AE1617",
"W 	c #BA1918",
"X 	c #B71818",
"Y 	c #BD1919",
"Z 	c #C12222",
"` 	c #BB1817",
" .	c #AC1617",
"..	c #B51717",
"+.	c #B21717",
"@.	c #BD1718",
"#.	c #BE2221",
"$.	c #B02021",
"%.	c #B42324",
"&.	c #BD1D1E",
"*.	c #B02526",
"=.	c #BF1818",
"-.	c #B01617",
";.	c #C12526",
">.	c #C01E1F",
",.	c #C01C1C",
"'.	c #B91717",
").	c #C12423",
"!.	c #BF2220",
"~.	c #C02221",
"{.	c #B51817",
"].	c #BE1817",
"^.	c #B11716",
"/.	c #B31717",
"(.	c #BE1919",
"_.	c #B61818",
":.	c #B41918",
"<.	c #BF1E1E",
"[.	c #C01A1A",
"}.	c #B61B1A",
"|.	c #BF1817",
"1.	c #BD1817",
"2.	c #B11717",
"3.	c #BC1C1C",
"4.	c #B52223",
"5.	c #B21718",
"6.	c #AF1616",
"7.	c #B61A1A",
"8.	c #B71718",
"9.	c #B91817",
"0.	c #B01717",
"a.	c #BA1718",
"b.	c #B71A1A",
"c.	c #BE2727",
"d.	c #B61819",
"e.	c #BB1819",
"f.	c #BA1818",
"g.	c #BF1C1C",
"h.	c #BE1D1C",
"i.	c #BF1917",
"j.	c #B31617",
"k.	c #C12727",
"l.	c #B52021",
"m.	c #BE2626",
"n.	c #C21B1B",
"o.	c #BE2222",
"p.	c #B41D1E",
"q.	c #B71918",
"r.	c #B91718",
"s.	c #C01D1D",
"t.	c #BC1918",
"u.	c #BD1819",
"v.	c #B91918",
"w.	c #BD2323",
"x.	c #BF2324",
"y.	c #B3191A",
"z.	c #BC1717",
"A.	c #B5191A",
"B.	c #C01A19",
"C.	c #BF2223",
"D.	c #B32121",
"E.	c #BA1717",
"F.	c #B62121",
"G.	c #C02121",
"H.	c #B81F1F",
"I.	c #BB1B1A",
"J.	c #B41A19",
"K.	c #BF1A19",
"L.	c #B12222",
"M.	c #BE2627",
"N.	c #B22323",
"O.	c #BE1819",
"P.	c #B61918",
"Q.	c #BE1C1C",
"R.	c #BF2121",
"S.	c #BE2020",
"T.	c #AD1F1F",
"U.	c #B81716",
"V.	c #B21919",
"W.	c #AF1717",
"X.	c #B62023",
"Y.	c #BB1A1A",
"Z.	c #BD2426",
"`.	c #C01E1D",
" +	c #C12424",
".+	c #BD2827",
"++	c #C11917",
"@+	c #BE1C1D",
"#+	c #B42728",
"$+	c #C0201F",
"%+	c #BF1A1A",
"&+	c #BF1F1E",
"*+	c #B12C2E",
"=+	c #BB1B1B",
"-+	c #BD1E1D",
";+	c #AC1E1F",
">+	c #B91917",
",+	c #BE2022",
"'+	c #C01A1B",
")+	c #BD2220",
"!+	c #BF1F1F",
"~+	c #C21F1E",
"{+	c #BB2526",
"]+	c #BD2020",
"                                                                                ",
"                        . +                                                     ",
"                      @ # #                                                     ",
"                        $ #                                                     ",
"                          % &                 * = -                             ",
"                          ; #                   > , '           ) !             ",
"                          ~ # { ]     ^ / (     _ :           < # #             ",
"                          [ } > | # 1 2 3 4 % } 5 6           7 # 8             ",
"              9 0         a b # c c d e f # g h # i j       k #                 ",
"              # l     m # n o # e p # # # g q # # r # s t u # +                 ",
"            v > f $ w _ b d c # # c # # # x r _ # l b c _ > y                   ",
"                z _ 3 A B C # # # # # # # s j , D 3 % E F = G                   ",
"                  H # # _ I # # # # # # # J # # # o # d e 3 #       K           ",
"                L x M # r 3 # # # # # # c N # d d O 2 # | u % P   Q N R         ",
"                # # r g C % S T U s # # # # c O U V O c 3 W X g Y _ A {         ",
"              Z # 1 u # # ` O  . .J # # # # # p ..+. .@.X # # % q #.$.%.        ",
"  &.        *.j # ` n # c V  . . .2 # # # # # =.1 x -.=.h M # r S               ",
";.b _ >.,.j A % # _ 1 # '. . . . .3 # # # # # # # # _ # _ G I Y #               ",
").b !.~.# # {.# # ].^.# /. . . .2 % (.l _.:.% # # # # # # # 3 # # <.            ",
"          [.}.# x |.3 % +. . . .1.# > # # c X # # e 2.d c # # # # 3.            ",
"            4.% 5.` # # n  . .6.c # 7.# # % X # 8. . .9.0.a.% # # b.            ",
"            c.# -.3 # # # ].'.=.% # f d.e.t { 1. . . ./.O 1.f._ # 7.% g.h.+ L <.",
"              # d l # # # # # # # # # j h # # e  . . .J i.= j.# # > # # # # # k.",
"              _ I M # g # # # # # # # # # # # 2  . . .3 d d # # _ l.      m.n.o.",
"              p.S # # q.# # # # # =.U S # # # # r.V O { 3 ].# # s.              ",
"          t.W % _ x (...# =.3 # =.V  .2.# f 8.c # # d # y u.v.# w.              ",
"          % > x.y.Y f g % /.2 # d 2 '.d z. .V d # # # y r % A.B.                ",
"          C.D.    _ # # # { # # # # N # =.E.d # # # # > c # q                   ",
"                  F.# # # # b _ h # % # # # # # # # # e D # 4 G.                ",
"                  H.> # # # 4 > I._.J.| # # # d c # # # K.L.M.# t.N.            ",
"                  { O.G # # # P.# # # > # c /.O /.% # % Q.    o.l b             ",
"                R.# j S.T.[.# U.# c V.{ # 1.W...=.# (.X.        Y.Z.            ",
"              `.#  +        .+A.s l { % # # # _ q > o                           ",
"            ++% 7             @+s #+$+K.%+&+  *+=+# #                           ",
"            + # -+          ;+r >+                7 #                           ",
"                            ,+_ =.                  4 Q.                        ",
"                                                    '+# )+                      ",
"                                                    !+# ~+                      ",
"                                                    {+]+                        ",
"                                                                                "};
