/* XPM */
static xpm_row_t const virus50_4_xpm[] = {
"50 50 45 1",
" 	c None",
".	c #206262",
"+	c #206060",
"@	c #216262",
"#	c #1F5E5E",
"$	c #1F5D5D",
"%	c #226565",
"&	c #1F5F5F",
"*	c #216363",
"=	c #206161",
"-	c #1E5C5C",
";	c #216161",
">	c #1E5D5D",
",	c #1D5B5B",
"'	c #216464",
")	c #205F5F",
"!	c #226464",
"~	c #226666",
"{	c #1E5B5B",
"]	c #1E5A5A",
"^	c #1F5B5B",
"/	c #1F5C5C",
"(	c #205E5E",
"_	c #1D5757",
":	c #1D5555",
"<	c #1D5656",
"[	c #1E5959",
"}	c #216060",
"|	c #1E5858",
"1	c #1D5A5A",
"2	c #1D5858",
"3	c #1C5454",
"4	c #1C5656",
"5	c #1D5959",
"6	c #1C5353",
"7	c #1C5555",
"8	c #1E5757",
"9	c #236565",
"0	c #236666",
"a	c #1F6060",
"b	c #226363",
"c	c #226161",
"d	c #236767",
"e	c #246969",
"f	c #256767",
"                            .+                    ",
"                            @#$$                  ",
"                            %&$                   ",
"                  *=+       =#+                   ",
"                  &$-        #;                   ",
"                 +>,>'      )#@                   ",
"                  >$#      ###@                   ",
"       !+          )$   ~  #-$+                   ",
"      %=#;         )$))=.#{{]{{                   ",
"      %&$#        &^/${{$$$$///#@                 ",
"        $$##    *#${$$/{{$$/]]{$+#                ",
"          ($#)-$&$/{//{{/$${_:<[$$$    {}         ",
"          ;$/^-$$$-{{]]/$$$/|__[$$$$;  1$)        ",
"           -{{$$$${{^//$$$$$/{{/$$/$)$${{$        ",
"           ///${{/{/$-/$$$$$$$$$/{{{//$(;         ",
"           $$$$][//${2[/$$///$$$/]^^/$/)          ",
"          #$$$$/]{-/_34]$$[|[{$$${/$$-/}          ",
"         *)$$$${_<5|363_/$|77[$/${]--{$(          ",
"     #   .&$$$$^8<<36664{$^55^/{-/],]/$#@+     @  ",
"    }${ ;$--{-$$^[766637{$$//][]-$/-^$$#)+' 9@)+&*",
"    @${$)-{^^{$$$53663<5/$$${<7_]$$$$$$$//+&;+#$#*",
"    @$/##$//{]$$$]<<_5{///$${_::[$$$$$$$/[$()+)#)*",
"        $/$$/]$$$$^]//$^{]{$$^]]^$/{^$$$$]$+)     ",
"        &{{/-{/[{$$$$$-]{{]-$$$$$$-|]$$$${$       ",
"        &/{{{{|:[$$$$-]/$${{$$$$$$/]^/$$$$        ",
"        $/{-/{:3|/$$${]$$/]{$$$$$$$$/]]/$#        ",
"       //{[/$[7:||]$$/{//{]/$$$$$$$${[]]/+        ",
"       /{{<[/[7__:2$$${{{]-$${]^/$$/]-/{]#        ",
"=+))+)$/{{2]$]_55_]$$$$--/$/]<:_^$$--$$${-$-#     ",
"=#$#==;$//{{//]-{{-$$$$$$/^5<663|/$$$/^^^$#{#     ",
" )+@%~0a$#//^{{$$$-/$$$$/2<33666_/$$/{{{]$(/$     ",
" b*%     +#/{/{-$/]^$$$$[36666632/$$]]{$)  /$     ",
"         @${{${{/${/$$$$_666663_]/$/|_]&%         ",
"          /{/$/]{$$$$$$$236637|]^]{{_2$;%         ",
"          >///^/^$$$$$$$]<7:8[^/^5[{]{$c          ",
"        )$$$-{{--$$$$$$$/-]]//$$^{/$/^{           ",
"       )#{/()($///$$$$$$$$$///$/]$$$/]-           ",
"       @+$> !;({|{/{]$$$$${{]{--]$$${{$@          ",
"        )(a  @@)[]/52/$$$/]//$-{$$$/{##)          ",
"               d+$${[/$^/{]/$/1-$a)//=.+@9        ",
"                @+$$/$/2{/{{$-{##@    %b+;;       ",
"                 ;(////]$$${$$$}        ;$(;      ",
"                   -{]${)($-))@          #;d      ",
"                   )$(c     ($+          +@       ",
"                   &#!      $]{{                  ",
"                   #+e      >-($                  ",
"                   #+       =                     ",
"                  f))                             ",
"                 #c#+                             ",
"                  $#+                             "};
