/* XPM */
static xpm_row_t const virus50_1_xpm[] = {
"50 50 260 2",
"  	c None",
". 	c #C11B1A",
"+ 	c #C31818",
"@ 	c #C11919",
"# 	c #BF2020",
"$ 	c #C21918",
"% 	c #C21818",
"& 	c #C32D2C",
"* 	c #C01E1D",
"= 	c #C21C1B",
"- 	c #B52526",
"; 	c #C01918",
"> 	c #C0201F",
", 	c #BC2021",
"' 	c #BF2425",
") 	c #C21917",
"! 	c #BF1B1C",
"~ 	c #A62525",
"{ 	c #B91918",
"] 	c #C21817",
"^ 	c #BF2526",
"/ 	c #BC2D2D",
"( 	c #C31817",
"_ 	c #BF2021",
": 	c #BC1819",
"< 	c #B41919",
"[ 	c #AB2424",
"} 	c #BE2727",
"| 	c #BC2122",
"1 	c #B01C1B",
"2 	c #B72222",
"3 	c #BF1E1E",
"4 	c #BE201F",
"5 	c #C12727",
"6 	c #C12525",
"7 	c #BF201F",
"8 	c #BF2221",
"9 	c #BD2423",
"0 	c #B52123",
"a 	c #C01B1B",
"b 	c #BD2625",
"c 	c #B31919",
"d 	c #B11919",
"e 	c #BD1919",
"f 	c #BC1817",
"g 	c #B21717",
"h 	c #BC1818",
"i 	c #C11918",
"j 	c #B21918",
"k 	c #C21819",
"l 	c #B61C1D",
"m 	c #BD2A2C",
"n 	c #BE2325",
"o 	c #AF1B1D",
"p 	c #BB1818",
"q 	c #AF1617",
"r 	c #B91718",
"s 	c #C11819",
"t 	c #B71918",
"u 	c #BE2222",
"v 	c #BD2627",
"w 	c #BE2020",
"x 	c #BC1918",
"y 	c #C11E1F",
"z 	c #BB1717",
"A 	c #C01917",
"B 	c #B51717",
"C 	c #B01616",
"D 	c #B61919",
"E 	c #C11C1B",
"F 	c #AB201F",
"G 	c #C11A1A",
"H 	c #C11D1E",
"I 	c #B01918",
"J 	c #C01C1C",
"K 	c #C11818",
"L 	c #B21617",
"M 	c #C01818",
"N 	c #BF1818",
"O 	c #B71717",
"P 	c #BD1818",
"Q 	c #BC1919",
"R 	c #C01919",
"S 	c #B01919",
"T 	c #BF1918",
"U 	c #B21B1A",
"V 	c #B01B1B",
"W 	c #BB1F1F",
"X 	c #B3191A",
"Y 	c #B41A19",
"Z 	c #BA1919",
"` 	c #C11917",
" .	c #C01817",
"..	c #BF1A1A",
"+.	c #BD2725",
"@.	c #C11C1D",
"#.	c #B31918",
"$.	c #B51819",
"%.	c #B61818",
"&.	c #AE1616",
"*.	c #BD1817",
"=.	c #AE1F20",
"-.	c #AF1C1D",
";.	c #B81919",
">.	c #BF1817",
",.	c #B71817",
"'.	c #BE1918",
").	c #BA2020",
"!.	c #BB2020",
"~.	c #B21919",
"{.	c #B11617",
"].	c #AF1616",
"^.	c #AF1717",
"/.	c #BE2121",
"(.	c #AC2122",
"_.	c #BD282A",
":.	c #B51918",
"<.	c #B21718",
"[.	c #AC1617",
"}.	c #B61717",
"|.	c #B91919",
"1.	c #B12323",
"2.	c #C01B1A",
"3.	c #B31A19",
"4.	c #BF1C1C",
"5.	c #B91819",
"6.	c #BB1919",
"7.	c #B31819",
"8.	c #BE1818",
"9.	c #AE1717",
"0.	c #AC1618",
"a.	c #AE1617",
"b.	c #BC1718",
"c.	c #BE1819",
"d.	c #B31717",
"e.	c #AD1617",
"f.	c #B11717",
"g.	c #BA1817",
"h.	c #B81818",
"i.	c #B72220",
"j.	c #B22426",
"k.	c #BD1D1D",
"l.	c #AC2021",
"m.	c #B41717",
"n.	c #B51919",
"o.	c #B71919",
"p.	c #BF2122",
"q.	c #C21919",
"r.	c #BF2222",
"s.	c #BF2525",
"t.	c #BD2323",
"u.	c #BE2223",
"v.	c #C1191A",
"w.	c #BA1918",
"x.	c #C02828",
"y.	c #C21916",
"z.	c #B81717",
"A.	c #B81718",
"B.	c #BF1D1E",
"C.	c #BF2928",
"D.	c #C01D1D",
"E.	c #B51818",
"F.	c #B91817",
"G.	c #B31716",
"H.	c #BD1819",
"I.	c #BC2526",
"J.	c #BB1918",
"K.	c #B81918",
"L.	c #B01617",
"M.	c #B41718",
"N.	c #BE1717",
"O.	c #AE1716",
"P.	c #BE1919",
"Q.	c #B71818",
"R.	c #AB1617",
"S.	c #BE1817",
"T.	c #B31617",
"U.	c #AF2021",
"V.	c #BF2120",
"W.	c #B11718",
"X.	c #B61617",
"Y.	c #B21716",
"Z.	c #B0191A",
"`.	c #B51716",
" +	c #C01C1B",
".+	c #BB2A2B",
"++	c #C02120",
"@+	c #B2191A",
"#+	c #B31818",
"$+	c #B91717",
"%+	c #B41617",
"&+	c #BF2324",
"*+	c #BF1A19",
"=+	c #B31C1E",
"-+	c #BE2122",
";+	c #BD2222",
">+	c #BC2424",
",+	c #B01A1B",
"'+	c #BA1717",
")+	c #BA1B19",
"!+	c #C01E1E",
"~+	c #B41819",
"{+	c #BD1918",
"]+	c #BF2323",
"^+	c #B41918",
"/+	c #AF1919",
"(+	c #AD1616",
"_+	c #AC1616",
":+	c #BB1817",
"<+	c #B4191A",
"[+	c #B61918",
"}+	c #B11E1F",
"|+	c #BD2122",
"1+	c #B11A19",
"2+	c #BE1B1B",
"3+	c #BD1717",
"4+	c #BC1A19",
"5+	c #C31816",
"6+	c #BF1F20",
"7+	c #B21A1A",
"8+	c #B62123",
"9+	c #C01A19",
"0+	c #AD1F20",
"a+	c #AC2525",
"b+	c #B11918",
"c+	c #B51718",
"d+	c #B81817",
"e+	c #BD2727",
"f+	c #C01F1F",
"g+	c #B7191A",
"h+	c #C21A1A",
"i+	c #BA2425",
"j+	c #B92425",
"k+	c #A32626",
"l+	c #B91A1A",
"m+	c #BD1E1E",
"n+	c #BF1F1E",
"o+	c #BC2626",
"p+	c #BF1F1F",
"q+	c #BB1E1E",
"r+	c #BC2123",
"s+	c #BB1D1D",
"t+	c #B31D1D",
"u+	c #BE2322",
"v+	c #BD1D1E",
"w+	c #B11B1B",
"x+	c #BD2324",
"y+	c #B2282A",
"z+	c #BC2223",
"A+	c #BF1D1D",
"B+	c #BD2121",
"C+	c #B31917",
"D+	c #B21A19",
"E+	c #C01D1E",
"F+	c #AE1C1C",
"G+	c #BD1F20",
"H+	c #B82726",
"I+	c #BC2425",
"J+	c #BD2827",
"K+	c #BE1D1D",
"                                                                                                    ",
"                                                                                                    ",
"                              . + @                                                                 ",
"                            # $ % &                                                                 ",
"                              * % .                                                                 ",
"                                = %                       - ; > ,                                   ",
"                                ' ) !                     ~ { $ ]               ^                   ",
"                                / ( % _                     : < [             } + % |               ",
"                                  % % { 1 2 3 4 5 6 7 8 9 0 $ a               3 % ] @               ",
"                                b c d e $ ] % f g h ] % i j k l             m % % ! n               ",
"                    ,           o ; ) % % % % p q r % ) d s % t ] u       v % % w                   ",
"                  ] x         y % z A % B C h + % % % c x % ] D % % E F G + % w                     ",
"                H @ I J     i + K L M + N O P + % % Q Q k % % c R % ] i S T %                       ",
"                U V i % W X @ % % % % % % % % % % % % Y d Z ` ; D % z  .% I ..                      ",
"                    +.@.% ; #.X $.% % % % % % % % % % % % x %.p % + C &.*.$ =.                      ",
"                      -.R % % $ ;.% % % % % % % % % >.K % % % P K + N g ,.% '.        ).            ",
"                    !.% ~.% % i ~.% % % % % % % % % {.f i ( % ].^.K % ] ( + % /.    (.+ _.          ",
"                    G + :.% K S $ ) % P K % % % % % K % ; g P <.[.}.% % d #.|.D 1.2.3.$ 4.          ",
"                  /.$ % 5.6.7.i + 8.9.0.a.>.+ % % % % % b.[.g B [.a.% { $ % @ i ( % c.D i           ",
"                  @.% ] f ( % % M q [.[.[.d.% % % % % % N e.f.g.[.[.M h.R K % + Q i.    j.          ",
"  k.            l.% % K C % % % m.[.[.[.[.e.% % % % % % % P 8.` {.a.i i 7.% ( n.o.                  ",
"p.] q.r.s.t.u.v.3.+ % % i + % M [.[.[.[.[.d.% % % % % % % % % % $ M % + < T o.w.% _                 ",
"x.$ y.$ % % % % c % % + z.f $ A.[.[.[.[.e.M % $ D X t % + % % % % % % % % x < % % #                 ",
"B.i _ C.t.D.% ; E.% % % C F.% G.[.[.[.[.z.+ + d N ) H.c % % % %  .K % % % % % % % R                 ",
"            I.J.K.) f f M % + m.[.[.[.[.*.% ; n.% % % n.% % ( O [.L.% K K % % % % @                 ",
"                |.] M.d.% % % N.[.[.[.O.K % P.D % % % Q.@ % p [.[.R.S.g T.% % % % @ U.              ",
"                V.) W.X.] % % % f Y.L h + % % S @ $ @ Z.]  .e.[.[.[.`.[.d.% i % % ; %. +}       # .+",
"                ++k }.N |.% % % % % % % % % % s @+#+c % + B [.[.[.[.$+m.>.A.%+% % Q.P.% % % % % % &+",
"                b ] $ ;.x % % % % % % % % % % % ( % i % k q [.[.[.e.; $ ] h *.% % ~.$ @ *+..% ( % ' ",
"                  + 6.n.% i c + % % % % % % % % % % % % % `.[.[.[.&.i K P % % % ) =+-+        ;+% >+",
"                  ,+;.] % % < k % % % % % % 8.'+8.% % % % % A.e.[.{.% N $+% % % $                   ",
"            )+U.!++ ) % % % ~+i % % % % % O [.[.L.% % M M % + K g.8.% ] {+w.( % ]+                  ",
"            % t {+% ^+~.c ~./+$ 8.q f % K (+_+].:+] B (+a.% % % % % ) <+Z [+; )                     ",
"            @.` }+  |++ % % % + f G.M % % N *.N % b.[.e.A.+ % % % % |.w.+ i 1+3                     ",
"              2+      2.% % % % % % % % % % S.,.% K 3+ .% % % % % ] ~.$ % ) n.                      ",
"                        i % % % % % ) $ % % ( % % % % % % % % % % K 4+@ $ 5++ 6+                    ",
"                        I % % % % + i { 7+7.@+; + K % % % % % % % k %.#.c 8+q.% 9+0+a+              ",
"                      ;+T I % % % % % @+i % @ b+'.+ % K f c+d+] % % % % e+    G < e .               ",
"                      f+% R S '.% % + [+] % % 6.g+% % m.[.[.L.% % % h+i+      j+< ( |+              ",
"                    u.] % D.' k+' % % t % % o.o.( % $ d.f.O K % % o.            l+m+                ",
"                  n+% $ o+          p+X ) P.n.% % % % % % $ ) [+~.q+                                ",
"              , % % % r+              s+% t+u+; $ i ; # v+w+~.; % 2+                                ",
"              x+% % 4.              y+k `                   z+i % A+                                ",
"                B+% w               t C+D+                    >+) +                                 ",
"                                    E+i k F+                    f+% G+                              ",
"                                        H+                      I+k $ J+                            ",
"                                                                  % % + ).                          ",
"                                                                  ] % K+                            ",
"                                                                                                    ",
"                                                                                                    "};
