/* XPM */
static xpm_row_t const virus50_5_xpm[] = {
"50 50 43 1",
" 	c None",
".	c #662366",
"+	c #652265",
"@	c #5F205F",
"#	c #5E1F5E",
"$	c #622162",
"%	c #652365",
"&	c #602060",
"*	c #622262",
"=	c #622062",
"-	c #612161",
";	c #5D1F5D",
">	c #5C1F5C",
",	c #5C1E5C",
"'	c #5F1F5F",
")	c #5B1F5B",
"!	c #642164",
"~	c #612061",
"{	c #5E205E",
"]	c #642264",
"^	c #672367",
"/	c #5B1E5B",
"(	c #5A1E5A",
"_	c #571D57",
":	c #591D59",
"<	c #591E59",
"[	c #602160",
"}	c #561D56",
"|	c #551C55",
"1	c #541C54",
"2	c #581D58",
"3	c #551D55",
"4	c #581E58",
"5	c #531C53",
"6	c #632163",
"7	c #561C56",
"8	c #672567",
"9	c #5A1D5A",
"0	c #632263",
"a	c #571E57",
"b	c #5D1E5D",
"c	c #5D205D",
"d	c #5B1D5B",
"                                 .++.             ",
"             @#$       %         $&&$             ",
"            *##&     =&-#&        ;#&             ",
"            +&;@      #>,        ;;@              ",
"             $@'$     ;))       .##               ",
"              !'~     @;{       ]##               ",
"              ^&@;    @##,     ,@;;               ",
"               ~;>>;#&;;,/{&{;;,>;'               ",
"               {,//>;>/;>/>;;;;>/)&               ",
"               ;/)/(>(,;;//;;;;;/(;               ",
"               #;(_:>(;;>>/>;;;;;;>      &        ",
"        -#{  $@;>:_(;/>>(),;;;;(>;;@     #'$      ",
"        #,,{ ;;;>>>>;>/>>>;;>>></;;;;@  #,,@      ",
"       *@,>;,////;>(::(>;;;;<_<)/;;>>, [;,,,      ",
"          {,;>>,,/<}|1|_>;;;<|2),////,>;;@=       ",
"          -,,;;>//(}33|2>;/<2_<>;)>/>;;#          ",
"          ->/,>//;><_4(,;;2|||_/>>>/,;;;+         ",
"         $@;////>;>2}_>;;;25551}4/;)/,,/6         ",
"         !{;>//);;><}4>;;;<355553<;>//(/~         ",
"         !();>>>>/>>/)>;;;,215553(;;;>/>'         ",
"         &2<;;;;><>;;;;;;;;/_15|2>;;;;;;;         ",
"        -;(/;;;;>/>;;;;>/>>>(}}</;;;;;;;;/#    6&@",
"        &;>>;;;;;;;;;;>/(/(/;//>;>;;;;>>;/,#@#';;#",
"        {;/</;;;;;;;;;(/;;/(;;;;)(>;;;(<>/>;'@&#;;",
"      $,>;<2/;;;;;;;;;(>;;;(,;;;4|(;;>_7/>/@6 +   ",
" -8& '@>>;();;;;;;;;;;/(>;;9;;;;_1<;;>_|(>,$      ",
"##[#{#;//;;;;;;;>(<2/;>((((/;;>;(}(;;>_}/#        ",
"'#@@0.$;>>/>;;;;(}11_);>>/>;;/<<))>;;;(<;~        ",
" ~     *>/:/;;;;:1551a/>;;;;;/77/>;;;;>>;&        ",
"         ;/>/>;;21555|2(;;;;;/||((;;>,;;;         ",
"         @;/(//;(|55551}/;;;;/}}//>,//,;;         ",
"         @>/(/(,,21555512;;;;,<<,,/////;;         ",
"          )/,;//;/_155512;;;;;;;;;(/;,/#;         ",
"          >>;;>/;;/_1117(;;;;;;;;>(>;;,#          ",
"         {@;>)>/;;;/4_2<>;;;;/(;;>(/>>;,          ",
"      ~b/;&;,(/,)>;>>/,;;;;;;:2>;;///,>;>9/       ",
"       ;,;] {;>,:(/<);;;;;;;;/(>;;;;;#c@,,@       ",
"       @;/  [#;;;;)2/;;;;,d(/>;;;;;;#  +;;        ",
"        >     &#;;;)/(>,,;>/:/;;;;;&6    &        ",
"               #;;;><_://>;>:>;;;;,'              ",
"               >/,,;/42///;,(;;;>(/=              ",
"                >///>;/>>/>//#;/((;=              ",
"               6@>>/;-~&>(>/'   ###~              ",
"               !&#~      9#>     &{&6             ",
"               ]@&!       #;     -~{~             ",
"               $[]       ;>,      =#@             ",
"              &@$.       >>##      #;@$           ",
"             &##$          &       ##'            ",
"             &&@@                  ~~$            ",
"              %0'                                 "};
