/* XPM */
static xpm_row_t const virus50_2_xpm[] = {
"50 50 74 1",
" 	c None",
".	c #62410D",
"+	c #61410C",
"@	c #60400C",
"#	c #5E3F0C",
"$	c #61400C",
"%	c #5F3F0C",
"&	c #5F3E0C",
"*	c #63420C",
"=	c #603F0C",
"-	c #67440D",
";	c #64420D",
">	c #62400D",
",	c #63420D",
"'	c #5F3F0D",
")	c #603F0D",
"!	c #5D3D0C",
"~	c #5D3E0C",
"{	c #61400D",
"]	c #60410D",
"^	c #5C3D0C",
"/	c #65430E",
"(	c #60400D",
"_	c #5C3E0C",
":	c #60410C",
"<	c #5B3D0C",
"[	c #5E3F0D",
"}	c #5D3F0C",
"|	c #64430D",
"1	c #62420D",
"2	c #5F400D",
"3	c #5B3D0B",
"4	c #5C3F0C",
"5	c #5A3C0C",
"6	c #5A3B0C",
"7	c #5B3C0C",
"8	c #5B3C0B",
"9	c #61410D",
"0	c #593B0C",
"a	c #593B0B",
"b	c #67450D",
"c	c #5E3E0C",
"d	c #5D3E0D",
"e	c #5F400C",
"f	c #5A3C0B",
"g	c #57390B",
"h	c #55380B",
"i	c #56390B",
"j	c #573A0B",
"k	c #593C0C",
"l	c #57390C",
"m	c #54380B",
"n	c #53370B",
"o	c #54370B",
"p	c #583B0B",
"q	c #5A3D0C",
"r	c #5E3E0D",
"s	c #63410D",
"t	c #55390B",
"u	c #65440E",
"v	c #593C0B",
"w	c #583B0C",
"x	c #583A0C",
"y	c #563A0B",
"z	c #573A0C",
"A	c #56390C",
"B	c #583A0B",
"C	c #573B0C",
"D	c #563A0C",
"E	c #5C3C0B",
"F	c #62410C",
"G	c #5C3C0C",
"H	c #66440D",
"I	c #62420C",
"                  .+@#                            ",
"                  $@%&                            ",
"                  *$=$                            ",
"                  -;>,                            ",
"                   >>.          '                 ",
"                   ))=          !~%.              ",
"                   {#~~        ]^^~               ",
"                  /(~_^^      :]~<                ",
"           __      ^<<^^~[%##~}#[          ''     ",
"          #_^  |12~^^~~~~~~_^3^~^         @%@$    ",
"         #~~~4^##^567^__^87<^^^^7^#2     .@9|-    ",
"         #~~~_<^<50a57<<^77<^^^^7^~#~  #$$%9b     ",
"           c~^^<<5553757^^__<^^<7<_<^^d~ccc       ",
".@e        #_^~^^^^^~~^<^^_^^<<7<_<5<<<<c%        ",
"@%##9     [~^<~~__~~~<f00aaf7^~~~~_^_~_^^!        ",
"%%#%@@%#3^~~<7<<<^~~<0ghhhhijk^~~~~~^<^~c[        ",
"%%%%@e#~^<~~^75<^^~_5lmnnnnnmik_~~~~55<~'(        ",
"    19#^^^~~!^3_~~~_5ionnnnnnmp<~~~~q5<^r(        ",
"     s{~__~~^<q_~~~~5gmmmoonnta^~~~~__^7^]u       ",
"       #~~~~^fv<~~~~^5wwwxgii0<~~~~~~~^672|       ",
"       %#~~~_35^~~~~~_^^^<7f5^~~~~~~~~_7<#.       ",
"       e#~_~~~^^~~~~~~~~_^_~~~~~~~~~~~^^^#9       ",
"       #~^<^^~~<7^~~~~^^<7<^~~~~~^<^~_^7^~2   $   ",
"   c{{r!^^<7^~^ajx7^~_<<^^<7^~~~~<7^^^<^<^~}_^c   ",
"   ~c&c!!~_<^^<0yt0^~^<^~~^<<~~~~_^~~^<^___~_^c   ",
"   ^^!c~___<<^<5wj0^~^<<__<<<~~^q<^~~^<^^^_~~~%   ",
"   ~^^c~^<^7^^^^707^~^<<<<<<_~~7xx5^^<<^<<^drr%   ",
"       #~^<<^~~^5k<_~~_<<^^_~~^5jzxa5<^7^~#       ",
"       ~~~__~~~7wyk^~~_<<__~~~~^0jiia<___~#       ",
"       ~~~~~~~~<0Aw<~<0Bp05<_~~^wihg6<<<^~~       ",
"       ~~~^7<_~~<05^^0tmmhiw7_~7Biz0^<007^~       ",
"        #~7jx5~~~__~<zmnnnnhw^~^5k5^_<w07^~]1     ",
"        'r<CDx^~~~~~<jmnnnoi0^~~^^<<<<q<8E^#9,,|  ",
"        __<5w0^~~~~~<zthtAAx5_~~<^^^<<__^!c%(@@@.;",
"        ~_^^7<^~~~~~^kwakwzx5_~_<^~~^^~~~~c((@##@;",
"        %c^^^~~~~_^^^^^_^7xB5^~_<^~~^~#      {##  ",
"       F@#~^^^~!^<<<G^<^^<55^~~_<<^^~c%           ",
"      ,$%#[## =~^<_~^7<^^<5<~~~~_^^^~#c           ",
"     e$=%     ;{#_~~^<^_~^^^~~~~#%#^ ~^~(         ",
"    ~c%=      H;(c~^^_~c~!__~~~~%(   <^#(         ",
"    c#=.         %c__#%%#__3^__~      c(          ",
"     ((          c'[     }__<^^                   ",
"                ~!        [#~%{                   ",
"               c~!c        'c{s                   ",
"               cc~&         ~({                   ",
"                            ~~c                   ",
"                            %c#(                  ",
"                            @e+,                  ",
"                            @I|H                  ",
"                             HH                   "};
